<svg width="32" height="33" viewBox="0 0 32 33" fill="none" xmlns="http://www.w3.org/2000/svg">
<rect y="0.5" width="32" height="32" rx="16" fill="#FFE0CC"/>
<path fill-rule="evenodd" clip-rule="evenodd" d="M11.625 20.75C11.625 20.4048 11.9048 20.125 12.25 20.125H14.4375C14.7827 20.125 15.0625 20.4048 15.0625 20.75C15.0625 21.0952 14.7827 21.375 14.4375 21.375H12.25C11.9048 21.375 11.625 21.0952 11.625 20.75Z" fill="#FF6600"/>
<path fill-rule="evenodd" clip-rule="evenodd" d="M16.9375 20.75C16.9375 20.4048 17.2173 20.125 17.5625 20.125H19.75C20.0952 20.125 20.375 20.4048 20.375 20.75C20.375 21.0952 20.0952 21.375 19.75 21.375H17.5625C17.2173 21.375 16.9375 21.0952 16.9375 20.75Z" fill="#FF6600"/>
<path fill-rule="evenodd" clip-rule="evenodd" d="M8.84549 13.316C9.05723 13.2101 9.31061 13.233 9.5 13.375L13.5 16.375V13.875C13.5 13.6383 13.6338 13.4219 13.8455 13.316C14.0572 13.2101 14.3106 13.233 14.5 13.375L19.3333 17H22.875C23.2202 17 23.5 17.2798 23.5 17.625V23.875C23.5 24.2202 23.2202 24.5 22.875 24.5C22.5298 24.5 22.25 24.2202 22.25 23.875V18.25H19.125C18.9898 18.25 18.8582 18.2061 18.75 18.125L14.75 15.125V17.625C14.75 17.8617 14.6162 18.0782 14.4045 18.184C14.1928 18.2899 13.9394 18.267 13.75 18.125L9.75 15.125V23.875C9.75 24.2202 9.47018 24.5 9.125 24.5C8.77982 24.5 8.5 24.2202 8.5 23.875V13.875C8.5 13.6383 8.63375 13.4219 8.84549 13.316Z" fill="#FF6600"/>
<path fill-rule="evenodd" clip-rule="evenodd" d="M6.625 23.875C6.625 23.5298 6.90482 23.25 7.25 23.25H24.75C25.0952 23.25 25.375 23.5298 25.375 23.875C25.375 24.2202 25.0952 24.5 24.75 24.5H7.25C6.90482 24.5 6.625 24.2202 6.625 23.875Z" fill="#FF6600"/>
<path fill-rule="evenodd" clip-rule="evenodd" d="M19.6641 8.25H21.0879C21.389 8.2509 21.6796 8.36047 21.9064 8.55854C22.1329 8.7563 22.2804 9.02904 22.3221 9.32674C22.3221 9.3272 22.3222 9.32766 22.3223 9.32813L23.4938 17.5367C23.5426 17.8784 23.3051 18.195 22.9634 18.2437C22.6217 18.2925 22.3051 18.055 22.2563 17.7133L21.0841 9.5H19.666L19.6657 9.50264L18.611 16.8698C18.562 17.2115 18.2454 17.4489 17.9037 17.3999C17.562 17.351 17.3247 17.0344 17.3736 16.6927L18.4279 9.32813C18.428 9.32762 18.428 9.3271 18.4281 9.32659C18.4698 9.02895 18.6173 8.75627 18.8437 8.55854C19.0705 8.36047 19.3612 8.25091 19.6623 8.25L19.6641 8.25Z" fill="#FF6600"/>
</svg>
