<svg width="32" height="32" viewBox="0 0 32 32" fill="none" xmlns="http://www.w3.org/2000/svg">
<circle cx="15.7992" cy="13.8012" r="12.6" fill="#FF9D5C"/>
<path d="M27.5308 12.9997L25.0008 8.6597C24.5459 7.85212 23.7916 7.25587 22.9008 6.9997C22.201 6.80913 21.459 6.84266 20.7792 7.09557C20.0994 7.34848 19.5159 7.80805 19.1108 8.4097L16.9208 4.6097C16.6013 4.10987 16.1594 3.7 15.6369 3.41902C15.1145 3.13805 14.5289 2.99529 13.9357 3.00431C13.3426 3.01333 12.7616 3.17382 12.2479 3.47055C11.7343 3.76727 11.305 4.19039 11.0008 4.6997C10.5714 4.30263 10.0485 4.02056 9.48082 3.8797C8.60375 3.66304 7.67687 3.79391 6.89408 4.24495C6.11129 4.69598 5.53323 5.43224 5.28082 6.2997C5.02815 7.1827 5.12855 8.12934 5.56082 8.9397L6.00082 9.6697C5.48289 9.7055 4.98004 9.85943 4.53082 10.1197C4.12952 10.3461 3.77703 10.6498 3.49369 11.0132C3.21035 11.3765 3.00176 11.7924 2.87997 12.2368C2.75819 12.6812 2.7256 13.1453 2.7841 13.6023C2.8426 14.0594 2.99103 14.5003 3.22082 14.8997L8.47082 23.9997C9.19269 25.2517 10.1542 26.3491 11.3004 27.2294C12.4466 28.1096 13.755 28.7553 15.1508 29.1297C16.0871 29.3793 17.0518 29.5071 18.0208 29.5097C19.9518 29.5079 21.8483 28.9977 23.5196 28.0306C25.191 27.0635 26.5783 25.6734 27.5421 24.0002C28.5059 22.3269 29.0123 20.4294 29.0103 18.4984C29.0083 16.5674 28.4981 14.671 27.5308 12.9997ZM26.7008 20.8297C26.2422 22.5525 25.2824 24.1002 23.9429 25.2767C22.6034 26.4532 20.9447 27.2054 19.1772 27.4378C17.4096 27.6703 15.6129 27.3726 14.0148 26.5824C12.4167 25.7923 11.0892 24.5453 10.2008 22.9997L5.00082 13.8997C4.90234 13.7313 4.84097 13.5438 4.82082 13.3497C4.78067 13.1551 4.78067 12.9543 4.82082 12.7597C4.92764 12.3743 5.18299 12.047 5.53082 11.8497C5.70079 11.7488 5.88947 11.6835 6.08543 11.6577C6.28139 11.632 6.48054 11.6462 6.67082 11.6997C6.86148 11.7499 7.04019 11.8377 7.19646 11.9579C7.35273 12.0781 7.48341 12.2283 7.58082 12.3997L10.3308 17.1597C10.3933 17.2792 10.4794 17.3848 10.5838 17.4702C10.6882 17.5556 10.8088 17.619 10.9383 17.6566C11.0678 17.6942 11.2036 17.7051 11.3375 17.6889C11.4714 17.6726 11.6006 17.6294 11.7173 17.5619C11.8341 17.4944 11.936 17.404 12.0169 17.2961C12.0978 17.1882 12.1561 17.0651 12.1882 16.9341C12.2203 16.8031 12.2255 16.667 12.2036 16.5339C12.1818 16.4008 12.1332 16.2735 12.0608 16.1597L9.29082 11.3997L7.31082 7.9997C7.10395 7.65889 7.04094 7.24987 7.13564 6.86261C7.23035 6.47535 7.47502 6.14157 7.81582 5.9347C8.15662 5.72783 8.56565 5.66482 8.95291 5.75952C9.34017 5.85423 9.67395 6.0989 9.88082 6.4397L10.8808 8.1297L14.1408 13.7797C14.2734 14.0104 14.4923 14.179 14.7492 14.2484C15.0061 14.3178 15.2801 14.2823 15.5108 14.1497C15.7416 14.0171 15.9102 13.7983 15.9796 13.5413C16.0489 13.2844 16.0134 13.0104 15.8808 12.7797L12.6308 7.1997C12.4602 6.85901 12.421 6.46742 12.5208 6.0997C12.6366 5.7348 12.8875 5.42797 13.2221 5.24206C13.5568 5.05614 13.9498 5.00521 14.3208 5.0997C14.6865 5.18344 15.0055 5.40568 15.2108 5.7197L19.0008 12.1597L19.7908 13.5397C19.4438 13.8397 19.1288 14.1748 18.8508 14.5397C18.1299 15.4815 17.7043 16.6159 17.6277 17.7995C17.5512 18.9831 17.8272 20.1629 18.4208 21.1897C18.4865 21.3039 18.574 21.4041 18.6784 21.4846C18.7828 21.565 18.902 21.6241 19.0292 21.6584C19.1564 21.6928 19.2891 21.7018 19.4198 21.6848C19.5505 21.6679 19.6766 21.6254 19.7908 21.5597C19.9051 21.494 20.0053 21.4065 20.0857 21.3021C20.1661 21.1977 20.2252 21.0785 20.2596 20.9513C20.2939 20.8241 20.3029 20.6914 20.2859 20.5607C20.269 20.43 20.2265 20.3039 20.1608 20.1897C19.8941 19.7388 19.7206 19.2389 19.6508 18.7197C19.5479 17.9296 19.6833 17.1267 20.0396 16.4141C20.3959 15.7014 20.957 15.1114 21.6508 14.7197C21.8795 14.5878 22.0468 14.3707 22.1161 14.116C22.1855 13.8612 22.1512 13.5893 22.0208 13.3597L20.7708 11.1797C20.6537 11.0092 20.5729 10.8166 20.5333 10.6136C20.4938 10.4106 20.4963 10.2017 20.5408 9.9997C20.5915 9.80926 20.6795 9.63077 20.7997 9.47457C20.9198 9.31837 21.0698 9.18755 21.2408 9.0897C21.4152 8.9993 21.6059 8.94476 21.8017 8.9293C21.9975 8.91384 22.1944 8.93778 22.3808 8.9997C22.5726 9.05023 22.7526 9.13806 22.9105 9.25817C23.0683 9.37828 23.201 9.52831 23.3008 9.6997L25.8008 13.9997C26.392 15.0233 26.7758 16.1533 26.9302 17.3252C27.0846 18.4971 27.0067 19.6879 26.7008 20.8297V20.8297Z" fill="#111111"/>
<path d="M6.86954 24.9995C6.80388 24.8853 6.71636 24.7851 6.61197 24.7047C6.50759 24.6242 6.38838 24.5652 6.26117 24.5308C6.13395 24.4964 6.00121 24.4875 5.87053 24.5044C5.73985 24.5214 5.61379 24.5639 5.49954 24.6295C5.38529 24.6952 5.28509 24.7827 5.20466 24.8871C5.12424 24.9915 5.06516 25.1107 5.0308 25.2379C4.99644 25.3651 4.98748 25.4979 5.00442 25.6285C5.02136 25.7592 5.06388 25.8853 5.12954 25.9995C6.23458 27.915 7.75106 29.5613 9.56954 30.8195C9.67856 30.9006 9.80296 30.9585 9.93513 30.9899C10.0673 31.0213 10.2045 31.0254 10.3383 31.002C10.4721 30.9786 10.5998 30.9282 10.7134 30.8539C10.8271 30.7795 10.9245 30.6828 10.9995 30.5695C11.1504 30.3519 11.2087 30.0834 11.1619 29.8229C11.115 29.5623 10.9667 29.3309 10.7495 29.1795C9.1583 28.0957 7.83205 26.6669 6.86954 24.9995V24.9995Z" fill="#111111"/>
<path d="M22.0007 4.88012C22.9591 4.87919 23.9007 5.13099 24.7307 5.61012C25.5595 6.09214 26.2487 6.78135 26.7307 7.61012C26.8175 7.76458 26.9438 7.8932 27.0967 7.98282C27.2496 8.07243 27.4235 8.11981 27.6007 8.12012C27.7757 8.11906 27.9474 8.07209 28.0986 7.98389C28.2498 7.8957 28.3752 7.76936 28.4622 7.61752C28.5493 7.46568 28.595 7.29364 28.5947 7.11862C28.5944 6.94359 28.5482 6.77169 28.4607 6.62012C27.8091 5.47536 26.8631 4.52584 25.7207 3.87012C24.5778 3.21913 23.286 2.87465 21.9707 2.87012C21.7055 2.87012 21.4511 2.97547 21.2636 3.16301C21.0761 3.35055 20.9707 3.6049 20.9707 3.87012C20.9707 4.13533 21.0761 4.38969 21.2636 4.57722C21.4511 4.76476 21.7055 4.87012 21.9707 4.87012L22.0007 4.88012Z" fill="#111111"/>
</svg>
