<svg width="665" height="665" viewBox="0 0 665 665" fill="none" xmlns="http://www.w3.org/2000/svg">
<path d="M489.822 80.5635H191.268C139.608 80.5635 97.7304 122.442 97.7304 174.101V516.625C97.7304 568.284 139.608 610.162 191.268 610.162H489.822C541.481 610.162 583.359 568.284 583.359 516.625V174.101C583.359 122.442 541.481 80.5635 489.822 80.5635Z" fill="#F9B57D"/>
<path d="M393.797 363.927H129.977V659.015H393.797V363.927Z" fill="#CCCCCC"/>
<path d="M343.965 610.156H175.899V659.009H343.965V610.156Z" fill="#4D4D4D"/>
<path d="M546.224 363.927H356.662V659.015H546.224V363.927Z" fill="#FF6600"/>
<path d="M535.479 610.156H342.007V659.009H535.479V610.156Z" fill="#FF8533"/>
<path d="M253.581 203.681C129.977 203.681 129.977 327.285 129.977 327.285V363.927H391.845C393.797 343.411 391.845 335.794 391.845 321.909C391.845 253.642 381.094 203.681 253.581 203.681Z" fill="#CCCCCC"/>
<path d="M271.677 357.123C271.677 357.123 201.304 331.287 198.373 429.264C195.442 527.24 195.442 560.324 195.442 560.324H347.875V429.775C347.875 429.775 346.939 353.694 271.677 357.123Z" fill="black"/>
<path d="M175.966 610.156C175.966 610.156 167.389 485.087 265.446 487.039C363.503 488.991 368.65 610.156 368.65 610.156H175.966Z" fill="#4D4D4D"/>
<path d="M342.075 610.156C342.075 610.156 311.78 450.913 431.554 446.006C551.106 441.111 534.759 610.156 534.759 610.156H342.075Z" fill="#FF8533"/>
<path d="M364.482 515.905L370.343 658.048L468.055 659.015L437.084 493.88C437.084 493.88 405.515 531.92 364.482 515.898V515.905Z" fill="#FFE0CC"/>
<path d="M336.151 64.6651C360.227 172.888 327.192 142.772 282.834 158.953C238.476 175.135 186.643 191.951 175.517 123.265C167.703 75.0157 181.36 37.7942 223.772 17.0499C255.649 1.4593 326.373 20.7258 336.151 64.6651Z" fill="black"/>
<path d="M468.228 422.872C468.228 422.872 355.646 423.808 352.869 471.017C350.092 518.226 362.591 537.665 405.632 516.841C448.678 496.01 519.716 442.767 468.228 422.872Z" fill="#FFA366"/>
<path d="M457.385 431.665C457.385 431.665 378.163 432.324 376.205 465.543C374.247 498.762 383.046 512.444 413.334 497.789C443.623 483.135 493.615 445.661 457.385 431.665Z" fill="#BF4D00"/>
<path d="M400.059 419.867L403.569 482.156L448.302 445.852L429.947 416.709L400.059 419.867Z" fill="#FFE0CC"/>
<path d="M429.947 416.709L400.059 419.867L401.241 440.821C403.544 441.418 405.927 441.979 408.402 442.49C423.402 445.599 436.154 446.086 446.781 443.438L429.947 416.709Z" fill="#FFC299"/>
<path d="M251.136 473.363L242.343 500.585L293.093 502.377L286.282 468.77L251.136 473.363Z" fill="#E6E6E6"/>
<path d="M242.343 500.585L293.093 502.377L289.632 485.296L246.272 488.424L242.343 500.585Z" fill="white"/>
<path d="M441.806 104.011C441.806 104.011 367.764 110.23 376.384 163.793C376.384 163.793 372.745 172.192 386.205 182.075C386.205 182.075 371.322 208.564 382.073 222.245C382.073 222.245 369.371 228.107 370.35 249.603L441.813 260.354L467.803 124.534L451.67 101.844L441.813 104.017L441.806 104.011Z" fill="black"/>
<path d="M229.641 191.951L223.779 224.197C223.779 224.197 273.611 250.582 298.037 236.9L291.196 194.882C291.196 194.882 244.295 198.792 229.641 191.951Z" fill="white"/>
<path d="M295.063 218.643L291.196 194.882C291.196 194.882 262.675 197.259 243.162 195.061C252.318 201.963 275.63 218.009 295.063 218.643Z" fill="#E6E6E6"/>
<path d="M204.272 126.978C204.272 85.6926 218.927 36.5935 271.696 36.5935C324.465 36.5935 339.119 85.6926 339.119 126.978C339.119 168.263 339.119 201.729 271.696 201.729C200.368 201.729 204.272 168.263 204.272 126.978Z" fill="white"/>
<path d="M338.59 129.416C329.144 129.416 321.491 137.07 321.491 146.516C321.491 155.376 328.233 162.666 336.872 163.528C338.978 153.393 339.113 141.799 339.119 129.441C338.941 129.441 338.768 129.416 338.596 129.416H338.59Z" fill="#E6E6E6"/>
<path d="M203.749 151.891C213.192 151.891 220.848 144.235 220.848 134.792C220.848 125.348 213.192 117.693 203.749 117.693C194.305 117.693 186.649 125.348 186.649 134.792C186.649 144.235 194.305 151.891 203.749 151.891Z" fill="white"/>
<path d="M244.788 163.615C254.231 163.615 261.887 155.959 261.887 146.516C261.887 137.072 254.231 129.416 244.788 129.416C235.344 129.416 227.689 137.072 227.689 146.516C227.689 155.959 235.344 163.615 244.788 163.615Z" fill="#E6E6E6"/>
<path d="M305.857 120.624C308.554 120.624 310.74 118.438 310.74 115.741C310.74 113.044 308.554 110.858 305.857 110.858C303.16 110.858 300.974 113.044 300.974 115.741C300.974 118.438 303.16 120.624 305.857 120.624Z" fill="black"/>
<path d="M257.977 121.596C260.674 121.596 262.86 119.41 262.86 116.714C262.86 114.017 260.674 111.831 257.977 111.831C255.28 111.831 253.094 114.017 253.094 116.714C253.094 119.41 255.28 121.596 257.977 121.596Z" fill="black"/>
<path d="M271.696 36.5935C221.981 36.5935 206.101 80.1818 204.426 119.749C207.652 128.659 211.772 137.236 218.89 137.236C229.64 137.236 231.211 135.284 227.984 127.951C224.758 120.617 209.118 78.6055 230.62 63.9508C252.121 49.2962 283.382 68.8337 300.974 64.9299C308.227 63.3166 314.81 61.2046 319.773 58.3907C309.317 45.2693 293.875 36.5935 271.696 36.5935Z" fill="black" stroke="black" stroke-miterlimit="10"/>
<path d="M292.175 104.011C292.175 104.011 304.299 129.416 300.192 135.278C296.085 141.14 290.223 140.161 290.223 140.161" stroke="black" stroke-width="3.17" stroke-linecap="round" stroke-linejoin="round"/>
<path d="M267.749 154.822C267.749 154.822 294.133 176.268 312.698 152.845" stroke="black" stroke-width="3.17" stroke-linecap="round" stroke-linejoin="round"/>
<path d="M247.226 104.011C247.226 104.011 254.067 96.191 263.839 99.1281" stroke="black" stroke-width="15.87" stroke-linecap="round" stroke-linejoin="round"/>
<path d="M299.989 97.558C299.989 97.558 312.618 94.2391 317.538 104.011" stroke="black" stroke-width="15.87" stroke-linecap="round" stroke-linejoin="round"/>
<path d="M197.394 124.534C197.394 124.534 210.097 127.464 209.118 144.077" stroke="black" stroke-width="3.17" stroke-linecap="round" stroke-linejoin="round"/>
<path d="M157.654 245.902C157.654 245.902 207.277 251.198 209.173 299.743C211.076 348.288 209.173 363.921 209.173 363.921" fill="#CCCCCC"/>
<path d="M157.654 245.902C157.654 245.902 207.277 251.198 209.173 299.743C211.076 348.288 209.173 363.921 209.173 363.921" stroke="#666666" stroke-width="3.17" stroke-linecap="round" stroke-linejoin="round"/>
<path d="M226.71 202.289C226.71 202.289 215.091 197.622 212.104 217.751L226.71 202.289Z" fill="#CCCCCC"/>
<path d="M226.71 202.289C226.71 202.289 215.091 197.622 212.104 217.751" stroke="#666666" stroke-width="3.17" stroke-linecap="round" stroke-linejoin="round"/>
<path d="M293.111 202.031C293.111 202.031 309.687 198.847 313.634 215.916L293.111 202.031Z" fill="#CCCCCC"/>
<path d="M293.111 202.031C293.111 202.031 309.687 198.847 313.634 215.916" stroke="#666666" stroke-width="3.17" stroke-linecap="round" stroke-linejoin="round"/>
<path d="M220.848 227.381C220.848 227.381 216.938 236.9 216.938 244.72L220.848 227.381Z" fill="#CCCCCC"/>
<path d="M220.848 227.381C220.848 227.381 216.938 236.9 216.938 244.72" stroke="#666666" stroke-width="3.17" stroke-linecap="round" stroke-linejoin="round"/>
<path d="M243.316 237.153C243.316 237.153 239.406 246.672 239.406 254.492L243.316 237.153Z" fill="#CCCCCC"/>
<path d="M243.316 237.153C243.316 237.153 239.406 246.672 239.406 254.492" stroke="#666666" stroke-width="3.17" stroke-linecap="round" stroke-linejoin="round"/>
<path d="M269.701 243.014C269.701 243.014 265.791 252.534 265.791 260.354L269.701 243.014Z" fill="#CCCCCC"/>
<path d="M269.701 243.014C269.701 243.014 265.791 252.534 265.791 260.354" stroke="#666666" stroke-width="3.17" stroke-linecap="round" stroke-linejoin="round"/>
<path d="M298.037 243.014C298.037 243.014 301.947 252.534 301.947 260.354L298.037 243.014Z" fill="#CCCCCC"/>
<path d="M298.037 243.014C298.037 243.014 301.947 252.534 301.947 260.354" stroke="#666666" stroke-width="3.17" stroke-linecap="round" stroke-linejoin="round"/>
<path d="M311.719 227.381C311.719 227.381 315.629 236.9 315.629 244.72L311.719 227.381Z" fill="#CCCCCC"/>
<path d="M311.719 227.381C311.719 227.381 315.629 236.9 315.629 244.72" stroke="#666666" stroke-width="3.17" stroke-linecap="round" stroke-linejoin="round"/>
<path d="M433.112 234.628L429.947 267.188L483.03 251.684L484.822 218.643L433.112 234.628Z" fill="#CCCCCC"/>
<path d="M417.608 251.684L491.096 237.153L493.338 254.492C493.338 254.492 541.341 257.423 542.32 302.372C543.299 347.321 546.667 363.927 546.667 363.927H356.668C356.668 363.927 356.668 285.759 369.371 277.939C382.073 270.119 416.715 267.188 416.715 267.188L417.614 251.678L417.608 251.684Z" fill="#FF6600"/>
<path d="M523.749 168.504C523.749 201.421 490.936 236.9 450.464 236.9C409.991 236.9 392.812 204.352 392.812 171.435C392.812 138.517 409.991 108.9 450.464 108.9C490.936 108.9 523.749 135.586 523.749 168.504Z" fill="#CCCCCC"/>
<path d="M444.94 104.011C444.94 104.011 449.873 138.209 473.622 141.14C473.622 141.14 463.314 158.726 480.346 172.894C480.346 172.894 469.182 196.446 480.346 208.853C480.346 208.853 457.311 231.032 465.131 262.299L563.249 218.637C563.249 218.637 539.438 177.29 523.293 175.338C523.293 175.338 531.354 157.753 514.852 137.23C514.852 137.23 512.931 113.044 501.41 104.011C482.722 89.3563 444.947 104.011 444.947 104.011H444.94Z" fill="black"/>
<path d="M388.908 294.552C388.908 294.552 400.632 301.393 427.995 292.6C455.359 283.807 488.578 290.648 488.578 290.648" stroke="white" stroke-width="3.17" stroke-linecap="round" stroke-linejoin="round"/>
<path d="M388.908 331.681C388.908 331.681 400.632 338.522 427.995 329.729C455.353 320.936 488.578 327.777 488.578 327.777" stroke="white" stroke-width="3.17" stroke-linecap="round" stroke-linejoin="round"/>
<path d="M409.431 173.386C412.127 173.386 414.313 171.2 414.313 168.504C414.313 165.807 412.127 163.621 409.431 163.621C406.734 163.621 404.548 165.807 404.548 168.504C404.548 171.2 406.734 173.386 409.431 173.386Z" fill="black"/>
<path d="M454.374 175.338C457.07 175.338 459.256 173.152 459.256 170.456C459.256 167.759 457.07 165.573 454.374 165.573C451.677 165.573 449.491 167.759 449.491 170.456C449.491 173.152 451.677 175.338 454.374 175.338Z" fill="black"/>
<path d="M425.6 171.435L417.084 175.344C417.084 175.344 420.064 189.999 424.03 191.957" stroke="black" stroke-width="3.17" stroke-linecap="round" stroke-linejoin="round"/>
<path d="M411.383 201.797C411.383 201.797 425.064 209.543 436.788 199.771" stroke="black" stroke-width="3.17" stroke-linecap="round" stroke-linejoin="round"/>
<path d="M402.59 156.78C402.59 156.78 410.28 152.87 416.21 156.78" stroke="black" stroke-width="9.52" stroke-linecap="round" stroke-linejoin="round"/>
<path d="M447.539 158.732C447.539 158.732 455.229 154.822 461.159 158.732" stroke="black" stroke-width="9.52" stroke-linecap="round" stroke-linejoin="round"/>
<path d="M396.235 183.158C395.33 183.158 394.45 183.3 393.612 183.54C394.622 191.058 396.611 198.336 399.634 204.986C403.624 203.447 406.494 199.291 406.494 194.396C406.494 188.189 401.9 183.158 396.235 183.158Z" fill="#B3B3B3"/>
<path d="M459.324 213.447C467.455 213.447 474.046 206.229 474.046 197.326C474.046 188.424 467.455 181.206 459.324 181.206C451.193 181.206 444.602 188.424 444.602 197.326C444.602 206.229 451.193 213.447 459.324 213.447Z" fill="#B3B3B3"/>
<path d="M450.396 104.011C450.396 104.011 406.143 110.852 393.618 134.299C393.618 134.299 403.446 141.14 416.21 141.14L424.091 124.527V142.532C424.091 142.532 438.746 145.044 444.608 141.14L443.567 126.701L451.664 137.23C451.664 137.23 456.332 136.251 465.124 131.368L450.396 104.011Z" fill="black"/>
<path d="M499.809 196.84C509.253 196.84 516.908 189.184 516.908 179.741C516.908 170.297 509.253 162.642 499.809 162.642C490.365 162.642 482.71 170.297 482.71 179.741C482.71 189.184 490.365 196.84 499.809 196.84Z" fill="#CCCCCC"/>
<path d="M482.71 163.793C482.71 163.793 490.253 203.675 511.884 203.675L484.816 206.76C484.816 206.76 476.842 185.461 482.704 163.787L482.71 163.793Z" fill="black"/>
<path d="M508.171 168.504C508.171 168.504 495.468 171.435 496.447 188.047" stroke="black" stroke-width="3.17" stroke-linecap="round" stroke-linejoin="round"/>
<path d="M329.304 433.303C329.304 462.982 304.588 479.225 272.207 479.225C239.825 479.225 212.049 462.982 212.049 433.303C212.049 403.624 226.322 379.561 270.673 379.561C321.146 379.561 329.298 403.624 329.298 433.303H329.304Z" fill="white"/>
<path d="M207.166 413.759C207.166 413.759 249.184 414.738 270.68 379.561C270.68 379.561 317.581 417.669 333.214 416.69C333.214 416.69 334.23 363.927 271.677 363.927C209.124 363.927 207.166 413.759 207.166 413.759Z" fill="black"/>
<path d="M333.701 454.798C343.144 454.798 350.8 447.143 350.8 437.699C350.8 428.256 343.144 420.6 333.701 420.6C324.257 420.6 316.602 428.256 316.602 437.699C316.602 447.143 324.257 454.798 333.701 454.798Z" fill="white"/>
<path d="M342.062 426.462C342.062 426.462 329.36 429.393 330.339 446.006" stroke="black" stroke-width="3.17" stroke-linecap="round" stroke-linejoin="round"/>
<path d="M211.562 454.798C221.006 454.798 228.661 447.143 228.661 437.699C228.661 428.256 221.006 420.6 211.562 420.6C202.119 420.6 194.463 428.256 194.463 437.699C194.463 447.143 202.119 454.798 211.562 454.798Z" fill="white"/>
<path d="M203.207 426.462C203.207 426.462 215.909 429.393 214.93 446.006" stroke="black" stroke-width="3.17" stroke-linecap="round" stroke-linejoin="round"/>
<path d="M238.433 418.895C238.433 418.895 249.51 432.33 256.628 415.717" stroke="black" stroke-width="3.17" stroke-linecap="round" stroke-linejoin="round"/>
<path d="M297.668 418.895C297.668 418.895 286.59 432.33 279.472 415.717" stroke="black" stroke-width="3.17" stroke-linecap="round" stroke-linejoin="round"/>
<path d="M230.127 461.639C236.333 461.639 241.364 456.608 241.364 450.402C241.364 444.196 236.333 439.165 230.127 439.165C223.921 439.165 218.89 444.196 218.89 450.402C218.89 456.608 223.921 461.639 230.127 461.639Z" fill="#E6E6E6"/>
<path d="M311.226 461.639C317.432 461.639 322.463 456.608 322.463 450.402C322.463 444.196 317.432 439.165 311.226 439.165C305.02 439.165 299.989 444.196 299.989 450.402C299.989 456.608 305.02 461.639 311.226 461.639Z" fill="#E6E6E6"/>
<path d="M266.837 433.789C266.837 433.789 269.701 430.28 273.611 432.275" stroke="black" stroke-width="3.17" stroke-linecap="round" stroke-linejoin="round"/>
<path d="M242.343 406.918C242.343 406.918 250.034 403.008 255.963 406.918" stroke="black" stroke-width="9.52" stroke-linecap="round" stroke-linejoin="round"/>
<path d="M279.472 406.918C279.472 406.918 287.163 403.008 293.093 406.918" stroke="black" stroke-width="9.52" stroke-linecap="round" stroke-linejoin="round"/>
<path d="M242.343 442.404C242.343 442.404 272.632 461.633 295.106 441.117" stroke="black" stroke-width="3.17" stroke-linecap="round" stroke-linejoin="round"/>
<path d="M232.356 493.88L265.791 601.363L309.126 493.88H232.356Z" fill="#FF6600"/>
<path d="M210.097 533.946V609.214" stroke="white" stroke-width="3.17" stroke-miterlimit="10"/>
<path d="M316.602 533.946V609.214" stroke="white" stroke-width="3.17" stroke-miterlimit="10"/>
<path d="M269.701 359.038C298.702 359.038 322.771 372.554 327.482 390.306C328.03 388.243 328.331 386.119 328.331 383.957C328.331 363.182 302.082 346.336 269.707 346.336C237.331 346.336 211.082 363.176 211.082 383.957C211.082 386.125 211.384 388.243 211.932 390.306C216.636 372.554 240.705 359.038 269.713 359.038H269.701Z" fill="#FF6600"/>
<path d="M484.04 382.664C474.896 426.733 450.408 438.5 408.402 429.787C366.397 421.068 348.608 400.533 357.752 356.465C366.895 312.396 391.716 303.837 433.722 312.556C475.727 321.275 493.184 338.602 484.04 382.671V382.664Z" fill="#FFE0CC"/>
<path d="M485.154 406.918C494.598 406.918 502.254 399.263 502.254 389.819C502.254 380.376 494.598 372.72 485.154 372.72C475.711 372.72 468.055 380.376 468.055 389.819C468.055 399.263 475.711 406.918 485.154 406.918Z" fill="#FFE0CC"/>
<path d="M470.5 330.702C479.943 330.702 487.599 323.047 487.599 313.603C487.599 304.159 479.943 296.504 470.5 296.504C461.056 296.504 453.401 304.159 453.401 313.603C453.401 323.047 461.056 330.702 470.5 330.702Z" fill="black"/>
<path d="M508.115 329.237C508.115 323.344 505.135 318.147 500.597 315.075C504.298 307.304 501.638 297.834 494.15 293.197C492.137 291.953 489.97 291.178 487.771 290.839C485.579 283.924 479.114 278.918 471.473 278.918C467.594 278.918 464.028 280.224 461.159 282.403C459.466 277.711 455.784 273.98 451.116 272.219C449.583 264.35 442.662 258.402 434.337 258.402C427.921 258.402 422.337 261.942 419.412 267.17C417.657 266.56 415.779 266.216 413.821 266.216C406.918 266.216 400.983 270.316 398.286 276.203C395.496 274.226 392.098 273.05 388.415 273.05C380.398 273.05 373.687 278.58 371.84 286.024C370.873 285.858 369.888 285.753 368.878 285.753C359.433 285.753 351.779 293.407 351.779 302.852C351.779 305.906 352.592 308.763 353.989 311.245C350.252 314.379 347.869 319.083 347.869 324.348C347.869 333.793 355.523 341.447 364.968 341.447C371.335 341.447 376.876 337.962 379.82 332.796C382.116 333.941 384.696 334.606 387.443 334.606C395.527 334.606 402.282 328.99 404.068 321.454C406.161 322.365 408.464 322.882 410.896 322.882C414.775 322.882 418.34 321.577 421.21 319.397C423.587 325.979 429.873 330.696 437.281 330.696C438.469 330.696 439.633 330.573 440.76 330.339C441.32 339.033 448.364 345.942 457.114 346.293C460.155 351.009 465.451 354.143 471.485 354.143C472.335 354.143 473.16 354.063 473.979 353.94C477.076 357.08 481.38 359.026 486.14 359.026C495.585 359.026 503.239 351.372 503.239 341.927C503.239 341.687 503.214 341.459 503.202 341.219C506.244 338.134 508.122 333.898 508.122 329.224L508.115 329.237Z" fill="black"/>
<path d="M493.516 378.582C493.516 378.582 480.813 381.513 481.793 398.126" stroke="black" stroke-width="3.17" stroke-linecap="round" stroke-linejoin="round"/>
<path d="M377.184 344.384C377.184 344.384 384.875 340.474 390.805 344.384" stroke="black" stroke-width="9.52" stroke-linecap="round" stroke-linejoin="round"/>
<path d="M434.097 354.414C434.097 354.414 428.137 348.171 421.253 349.895" stroke="black" stroke-width="9.52" stroke-linecap="round" stroke-linejoin="round"/>
<path d="M373.767 386.888C386.179 386.888 396.241 376.826 396.241 364.414C396.241 352.002 386.179 341.939 373.767 341.939C361.355 341.939 351.292 352.002 351.292 364.414C351.292 376.826 361.355 386.888 373.767 386.888Z" stroke="black" stroke-width="4.76" stroke-linecap="round" stroke-linejoin="round"/>
<path d="M428.482 395.681C440.894 395.681 450.956 385.619 450.956 373.207C450.956 360.794 440.894 350.732 428.482 350.732C416.069 350.732 406.007 360.794 406.007 373.207C406.007 385.619 416.069 395.681 428.482 395.681Z" stroke="black" stroke-width="4.76" stroke-linecap="round" stroke-linejoin="round"/>
<path d="M400.059 378.582C400.059 378.582 391.353 380.047 394.283 385.909" stroke="black" stroke-width="4.76" stroke-linecap="round" stroke-linejoin="round"/>
<path d="M406.007 413.094C406.007 413.094 434.344 426.093 450.956 399.653" stroke="black" stroke-width="4.76" stroke-linecap="round" stroke-linejoin="round"/>
<path d="M380.115 373.693C382.812 373.693 384.998 371.507 384.998 368.81C384.998 366.113 382.812 363.927 380.115 363.927C377.419 363.927 375.232 366.113 375.232 368.81C375.232 371.507 377.419 373.693 380.115 373.693Z" fill="black"/>
<path d="M433.857 380.534C436.554 380.534 438.74 378.348 438.74 375.651C438.74 372.954 436.554 370.768 433.857 370.768C431.16 370.768 428.974 372.954 428.974 375.651C428.974 378.348 431.16 380.534 433.857 380.534Z" fill="black"/>
<path d="M372.788 410.828C378.994 410.828 384.025 405.797 384.025 399.591C384.025 393.385 378.994 388.354 372.788 388.354C366.582 388.354 361.551 393.385 361.551 399.591C361.551 405.797 366.582 410.828 372.788 410.828Z" fill="#FFC299"/>
<path d="M464.638 406.918C470.844 406.918 475.875 401.887 475.875 395.681C475.875 389.475 470.844 384.444 464.638 384.444C458.432 384.444 453.401 389.475 453.401 395.681C453.401 401.887 458.432 406.918 464.638 406.918Z" fill="#FFC299"/>
<path d="M451.935 371.255H496.884C506.059 371.255 513.497 378.693 513.497 387.867C513.497 397.042 506.059 404.48 496.884 404.48" stroke="black" stroke-width="4.76" stroke-linecap="round" stroke-linejoin="round"/>
<path d="M555.995 556.414C590.532 556.414 618.53 528.416 618.53 493.879C618.53 459.343 590.532 431.345 555.995 431.345C521.459 431.345 493.461 459.343 493.461 493.879C493.461 528.416 521.459 556.414 555.995 556.414Z" fill="#FF6600"/>
<path d="M591.173 521.243C591.173 547.683 540.423 563.261 513.983 563.261C487.543 563.261 466.103 541.827 466.103 515.381C466.103 488.935 487.537 467.501 513.983 467.501C540.429 467.501 591.173 494.797 591.173 521.243Z" fill="#CCCCCC"/>
<path d="M508.583 484.274L499.64 475.331C495.431 471.123 488.609 471.123 484.401 475.331L440.221 519.511C436.013 523.719 436.013 530.541 440.221 534.749L449.164 543.692C453.372 547.9 460.195 547.9 464.403 543.692L508.583 499.513C512.791 495.305 512.791 488.482 508.583 484.274Z" fill="#CCCCCC"/>
<path d="M535.946 503.822L527.003 494.879C522.795 490.671 515.972 490.671 511.764 494.879L467.585 539.059C463.377 543.267 463.377 550.089 467.585 554.298L476.528 563.241C480.736 567.449 487.559 567.449 491.767 563.241L535.946 519.061C540.154 514.853 540.154 508.03 535.946 503.822Z" fill="#CCCCCC"/>
<path d="M562.329 513.586L553.386 504.643C549.178 500.435 542.356 500.435 538.148 504.643L493.968 548.823C489.76 553.031 489.76 559.853 493.968 564.061L502.911 573.004C507.119 577.213 513.942 577.213 518.15 573.004L562.329 528.825C566.537 524.617 566.537 517.794 562.329 513.586Z" fill="#CCCCCC"/>
<path d="M589.694 523.361L580.751 514.418C576.543 510.21 569.72 510.21 565.512 514.418L521.333 558.598C517.125 562.806 517.125 569.629 521.333 573.837L530.276 582.78C534.484 586.988 541.307 586.988 545.515 582.78L589.694 538.6C593.902 534.392 593.902 527.57 589.694 523.361Z" fill="#CCCCCC"/>
<path d="M518.873 283.274L538.731 277.807C548.069 275.237 557.737 280.731 560.307 290.07L609.069 467.218L555.372 481.999L506.611 304.85C504.04 295.512 509.535 285.844 518.873 283.274Z" fill="#FF6600"/>
<path d="M522.776 296.504C522.776 296.504 514.845 325.819 526.631 354.156" stroke="#662C04" stroke-width="3.17" stroke-linecap="round" stroke-linejoin="round"/>
<path d="M468.88 539.223L501.767 502.377" stroke="black" stroke-width="3.17" stroke-linecap="round" stroke-linejoin="round"/>
<path d="M494.286 560.724L527.173 523.872" stroke="black" stroke-width="3.17" stroke-linecap="round" stroke-linejoin="round"/>
<path d="M140.721 554.462C175.258 554.462 203.256 526.465 203.256 491.928C203.256 457.391 175.258 429.393 140.721 429.393C106.184 429.393 78.1868 457.391 78.1868 491.928C78.1868 526.465 106.184 554.462 140.721 554.462Z" fill="#CCCCCC"/>
<path d="M105.544 519.285C105.544 545.725 156.293 561.303 182.733 561.303C209.173 561.303 230.613 539.869 230.613 513.423C230.613 486.983 209.179 465.543 182.733 465.543C156.287 465.543 105.544 492.839 105.544 519.285Z" fill="white"/>
<path d="M247.549 541.748L256.492 532.805C260.7 528.597 260.7 521.774 256.492 517.566L212.313 473.386C208.105 469.178 201.282 469.178 197.074 473.386L188.131 482.329C183.923 486.537 183.923 493.36 188.131 497.568L232.31 541.748C236.519 545.956 243.341 545.956 247.549 541.748Z" fill="white"/>
<path d="M220.192 561.287L229.135 552.344C233.343 548.136 233.343 541.313 229.135 537.105L184.956 492.925C180.747 488.717 173.925 488.717 169.717 492.925L160.774 501.868C156.566 506.076 156.566 512.899 160.774 517.107L204.953 561.287C209.161 565.495 215.984 565.495 220.192 561.287Z" fill="white"/>
<path d="M193.808 571.056L202.751 562.113C206.959 557.905 206.959 551.082 202.751 546.874L158.571 502.695C154.363 498.486 147.541 498.487 143.333 502.695L134.39 511.638C130.182 515.846 130.182 522.668 134.39 526.876L178.569 571.056C182.777 575.264 189.6 575.264 193.808 571.056Z" fill="white"/>
<path d="M166.452 580.824L175.395 571.881C179.603 567.673 179.603 560.85 175.395 556.642L131.215 512.463C127.007 508.255 120.185 508.255 115.977 512.463L107.034 521.406C102.826 525.614 102.826 532.437 107.034 536.645L151.213 580.824C155.421 585.032 162.244 585.032 166.452 580.824Z" fill="white"/>
<path d="M141.363 480.071L87.6664 465.291L136.428 288.142C138.998 278.804 148.666 273.31 158.004 275.88L177.862 281.346C187.201 283.917 192.695 293.585 190.125 302.923L141.363 480.071Z" fill="#CCCCCC"/>
<path d="M227.836 537.271L194.95 500.425" stroke="black" stroke-width="3.17" stroke-linecap="round" stroke-linejoin="round"/>
<path d="M202.431 558.766L169.544 521.92" stroke="black" stroke-width="3.17" stroke-linecap="round" stroke-linejoin="round"/>
<path d="M522.622 570.496L547.203 543.718" stroke="black" stroke-width="3.17" stroke-linecap="round" stroke-linejoin="round"/>
<path d="M175.899 569.517L151.318 542.739" stroke="black" stroke-width="3.17" stroke-linecap="round" stroke-linejoin="round"/>
<path d="M98.2168 234.942C126.548 234.942 149.514 211.975 149.514 183.645C149.514 155.314 126.548 132.347 98.2168 132.347C69.886 132.347 46.9194 155.314 46.9194 183.645C46.9194 211.975 69.886 234.942 98.2168 234.942Z" fill="#F9B57D"/>
<path d="M88.9376 125.506C104.587 125.506 117.274 112.82 117.274 97.17C117.274 81.5203 104.587 68.8336 88.9376 68.8336C73.2878 68.8336 60.6012 81.5203 60.6012 97.17C60.6012 112.82 73.2878 125.506 88.9376 125.506Z" fill="#F9B57D"/>
<path d="M145.118 98.1491C156.18 98.1491 165.148 89.1813 165.148 78.119C165.148 67.0568 156.18 58.089 145.118 58.089C134.055 58.089 125.088 67.0568 125.088 78.119C125.088 89.1813 134.055 98.1491 145.118 98.1491Z" fill="#F9B57D"/>
<path d="M328.325 594.017L306.405 659.212L428.968 659.015L380.115 587.294L328.325 594.017Z" fill="white"/>
<path d="M380.115 587.294L328.325 594.017L316.306 629.761C328.904 635.137 344.759 634.545 364.186 629.201C378.403 625.285 389.678 620.162 397.867 613.358L380.115 587.294Z" fill="#FF6600"/>
<path d="M433.857 500.72C436.585 515.252 405.551 595.335 364.192 606.72C322.827 618.105 297.637 607.927 285.691 564.53C273.746 521.132 291.941 502.204 333.307 490.825C374.672 479.44 430.926 485.087 433.857 500.72Z" fill="white"/>
<path d="M389.401 648.264C395.607 648.264 400.638 643.233 400.638 637.027C400.638 630.821 395.607 625.79 389.401 625.79C383.194 625.79 378.163 630.821 378.163 637.027C378.163 643.233 383.194 648.264 389.401 648.264Z" fill="#FF6600"/>
<path d="M367.413 520.264C368.491 520.264 369.364 519.39 369.364 518.312C369.364 517.234 368.491 516.36 367.413 516.36C366.335 516.36 365.461 517.234 365.461 518.312C365.461 519.39 366.335 520.264 367.413 520.264Z" fill="black"/>
<path d="M378.163 524.168C379.241 524.168 380.115 523.294 380.115 522.216C380.115 521.138 379.241 520.264 378.163 520.264C377.085 520.264 376.211 521.138 376.211 522.216C376.211 523.294 377.085 524.168 378.163 524.168Z" fill="black"/>
<path d="M368.392 530.036C369.47 530.036 370.343 529.162 370.343 528.084C370.343 527.006 369.47 526.132 368.392 526.132C367.314 526.132 366.44 527.006 366.44 528.084C366.44 529.162 367.314 530.036 368.392 530.036Z" fill="black"/>
<path d="M418.223 502.672C419.301 502.672 420.175 501.798 420.175 500.72C420.175 499.642 419.301 498.768 418.223 498.768C417.145 498.768 416.271 499.642 416.271 500.72C416.271 501.798 417.145 502.672 418.223 502.672Z" fill="black"/>
<path d="M428.968 506.582C430.046 506.582 430.92 505.708 430.92 504.63C430.92 503.552 430.046 502.678 428.968 502.678C427.89 502.678 427.016 503.552 427.016 504.63C427.016 505.708 427.89 506.582 428.968 506.582Z" fill="black"/>
<path d="M419.202 512.444C420.28 512.444 421.154 511.57 421.154 510.492C421.154 509.414 420.28 508.54 419.202 508.54C418.124 508.54 417.251 509.414 417.251 510.492C417.251 511.57 418.124 512.444 419.202 512.444Z" fill="black"/>
<path d="M339.563 539.808C345.769 539.808 350.8 534.777 350.8 528.57C350.8 522.364 345.769 517.333 339.563 517.333C333.356 517.333 328.325 522.364 328.325 528.57C328.325 534.777 333.356 539.808 339.563 539.808Z" fill="#E6E6E6"/>
<path d="M413.248 504.286C414.689 511.705 408.119 519.211 398.587 521.064C389.05 522.912 380.152 518.398 378.717 510.985C377.277 503.565 384.961 501.81 394.499 499.963C404.037 498.116 411.814 496.872 413.254 504.292L413.248 504.286Z" fill="black"/>
<path d="M364.482 536.877C364.482 536.877 376.205 540.787 383.046 537.856C383.046 537.856 394.77 566.192 374.253 565.213C353.737 564.234 364.482 536.877 364.482 536.877Z" fill="#FF6600"/>
<path d="M363.995 536.483C412.362 545.669 399.659 511.471 399.659 511.471C399.659 511.471 404.277 527.074 418.581 523.669" stroke="black" stroke-width="3.17" stroke-linecap="round" stroke-linejoin="round"/>
<path d="M373.324 488.997C373.324 488.997 369.364 503.528 381.088 499.68C392.812 495.831 386.95 487.039 386.95 487.039" stroke="black" stroke-width="3.17" stroke-linecap="round" stroke-linejoin="round"/>
<path d="M285.993 527.056C285.993 527.056 280.384 468.905 290.186 479.927C299.989 490.949 315.136 508.534 315.136 508.534C315.136 508.534 292.514 535.799 285.993 527.05V527.056Z" fill="white"/>
<path d="M322.149 513.374C322.149 513.374 316.54 455.223 326.343 466.245C336.145 477.267 351.292 494.852 351.292 494.852C351.292 494.852 328.67 522.117 322.149 513.368V513.374Z" fill="white"/>
<path d="M343.035 495.838C343.035 495.838 339.076 510.369 350.8 506.521C362.523 502.672 356.662 493.88 356.662 493.88" stroke="black" stroke-width="3.17" stroke-linecap="round" stroke-linejoin="round"/>
</svg>
