<svg width="250" height="67" viewBox="0 0 250 67" fill="none" xmlns="http://www.w3.org/2000/svg">
<g clip-path="url(#clip0_934_922)">
<path d="M216.503 67H0V0H216.503C235 0 250 15.0015 250 33.5C250 51.9985 235 67 216.503 67Z" fill="white"/>
<path d="M81.6505 20.002C81.6505 24.1037 78.3172 27.4373 74.2159 27.4373C70.1146 27.4373 66.7812 24.1037 66.7812 20.002C66.7812 15.9002 70.1146 12.5666 74.2159 12.5666C78.3172 12.5666 81.6505 15.9002 81.6505 20.002Z" fill="#F16722"/>
<path d="M96.5197 20.002C96.5197 24.1037 93.1863 27.4373 89.085 27.4373C84.9837 27.4373 81.6504 24.1037 81.6504 20.002C81.6504 15.9002 84.9837 12.5666 89.085 12.5666C93.1863 12.5666 96.5197 15.9002 96.5197 20.002Z" fill="#F16722"/>
<path d="M81.6505 49.7598C81.6505 53.8615 78.3172 57.1951 74.2159 57.1951C70.1146 57.1951 66.7812 53.8615 66.7812 49.7598C66.7812 45.658 70.1146 42.3244 74.2159 42.3244C78.3172 42.3244 81.6505 45.658 81.6505 49.7598Z" fill="#F16722"/>
<path d="M96.5197 49.7598C96.5197 53.8615 93.1863 57.1951 89.085 57.1951C84.9837 57.1951 81.6504 53.8615 81.6504 49.7598C81.6504 45.658 84.9837 42.3244 89.085 42.3244C93.1863 42.3244 96.5197 45.658 96.5197 49.7598Z" fill="#F16722"/>
<path d="M66.7809 34.8727C66.7809 38.9744 63.4476 42.308 59.3463 42.308C55.245 42.308 51.9116 38.9744 51.9116 34.8727C51.9116 30.771 55.245 27.4373 59.3463 27.4373C63.4476 27.4373 66.7809 30.771 66.7809 34.8727Z" fill="#F16722"/>
<path d="M81.6505 34.8727C81.6505 38.9744 78.3172 42.308 74.2159 42.308C70.1146 42.308 66.7812 38.9744 66.7812 34.8727C66.7812 30.771 70.1146 27.4373 74.2159 27.4373C78.3172 27.4373 81.6505 30.771 81.6505 34.8727Z" fill="#F16722"/>
<path d="M151.716 28.6793C150.915 28.6793 150.163 28.8263 149.444 29.1205C148.742 29.4146 148.088 29.8559 147.516 30.4278V28.9407H145.245V45.2168H147.5V39.5627C148.121 40.151 148.775 40.6085 149.51 40.9027C150.229 41.1968 151.029 41.3439 151.879 41.3439C152.843 41.3439 153.693 41.1968 154.428 40.8863C155.18 40.5759 155.866 40.1183 156.503 39.4646C157.092 38.8763 157.533 38.19 157.843 37.4383C158.154 36.6702 158.317 35.8695 158.317 35.0361C158.317 33.2059 157.696 31.7024 156.454 30.4932C155.212 29.2839 153.644 28.6793 151.748 28.6793M154.673 38.0102C153.824 38.8273 152.827 39.2195 151.634 39.2195C150.441 39.2195 149.493 38.7946 148.66 37.9612C147.827 37.1115 147.418 36.0983 147.418 34.9054C147.418 33.7941 147.843 32.83 148.693 31.9966C149.543 31.1632 150.523 30.7546 151.618 30.7546C152.827 30.7546 153.84 31.1632 154.69 31.9966C155.523 32.83 155.931 33.8432 155.931 35.0688C155.931 36.229 155.507 37.2095 154.673 38.0102ZM121.748 30.4278C121.111 29.8068 120.409 29.3493 119.641 29.0388C118.856 28.7283 118.023 28.5649 117.108 28.5649C116.258 28.5649 115.441 28.7446 114.641 29.0878C113.856 29.4473 113.137 29.9376 112.516 30.5912C111.928 31.1795 111.487 31.8495 111.193 32.6012C110.899 33.3529 110.752 34.1537 110.752 35.0034C110.752 35.8532 110.915 36.6212 111.242 37.4056C111.569 38.19 112.026 38.8763 112.614 39.481C113.235 40.1019 113.922 40.5759 114.69 40.9027C115.458 41.2132 116.307 41.3766 117.222 41.3766C118.137 41.3766 118.971 41.1968 119.755 40.8537C120.556 40.5105 121.258 39.9876 121.895 39.3176C122.451 38.7293 122.876 38.0429 123.186 37.2585C123.497 36.4741 123.644 35.6734 123.644 34.84C123.644 34.0066 123.48 33.2385 123.154 32.4868C122.827 31.7188 122.353 31.0324 121.732 30.4278M120.147 37.9776C119.363 38.7783 118.382 39.1868 117.222 39.1868C116.062 39.1868 115.049 38.7783 114.265 37.9776C113.464 37.1768 113.072 36.1637 113.072 34.9544C113.072 33.7451 113.464 32.732 114.265 31.9149C115.049 31.1141 116.029 30.7056 117.206 30.7056C118.382 30.7056 119.363 31.0978 120.147 31.8985C120.931 32.6993 121.324 33.7124 121.324 34.938C121.324 36.1637 120.931 37.1605 120.147 37.9776ZM102.99 30.7383C103.856 30.7383 104.592 30.918 105.212 31.2939C105.833 31.6534 106.34 32.209 106.732 32.9444H109.199C108.726 31.5554 107.958 30.4932 106.895 29.7251C105.833 28.9571 104.592 28.5812 103.154 28.5812C102.239 28.5812 101.373 28.761 100.572 29.1041C99.7713 29.4473 99.036 29.9539 98.3987 30.6239C97.8105 31.2285 97.3693 31.8985 97.0752 32.6339C96.7811 33.3693 96.6177 34.1537 96.6177 35.0034C96.6177 35.8532 96.7811 36.6212 97.1079 37.4056C97.4347 38.19 97.8922 38.8763 98.4804 39.481C99.1013 40.1019 99.7876 40.5759 100.539 40.8863C101.307 41.1968 102.141 41.3602 103.072 41.3602C104.559 41.3602 105.801 40.9844 106.846 40.2327C107.876 39.481 108.66 38.3698 109.183 36.9154H106.716C106.356 37.6507 105.866 38.2063 105.229 38.6149C104.592 39.0071 103.873 39.2195 103.088 39.2195C101.912 39.2195 100.931 38.811 100.131 38.0102C99.3464 37.2095 98.9543 36.1963 98.9543 34.9871C98.9543 33.7778 99.3464 32.7973 100.114 31.9802C100.899 31.1632 101.846 30.7546 102.958 30.7546M138.203 28.7446C137.288 28.7446 136.503 28.9244 135.866 29.2676C135.229 29.6107 134.706 30.1337 134.33 30.8363C133.938 30.1173 133.448 29.5944 132.843 29.2512C132.239 28.908 131.487 28.7446 130.572 28.7446C129.902 28.7446 129.297 28.8754 128.775 29.1532C128.252 29.4146 127.778 29.8232 127.353 30.3624V28.9407H125.343V41.0171H127.484V34.8237C127.484 33.4183 127.712 32.3888 128.17 31.7188C128.627 31.0488 129.346 30.7219 130.31 30.7219C131.275 30.7219 131.928 31.0488 132.369 31.7188C132.794 32.3888 133.023 33.451 133.023 34.9217V41.0171H135.212V34.7093C135.212 33.2712 135.425 32.2417 135.85 31.6371C136.275 31.0324 136.977 30.7219 137.958 30.7219C138.791 30.7219 139.444 30.9998 139.918 31.5717C140.392 32.1437 140.621 32.9444 140.621 33.9739V41.0171H142.892V33.6307C142.892 32.1437 142.467 30.9507 141.618 30.0683C140.768 29.1859 139.624 28.7283 138.219 28.7283M205.735 30.3951C205.147 29.8068 204.493 29.3656 203.758 29.0715C203.039 28.7773 202.239 28.6302 201.389 28.6302C200.441 28.6302 199.575 28.7773 198.824 29.0878C198.072 29.3819 197.386 29.8559 196.765 30.4932C196.193 31.0651 195.752 31.7351 195.425 32.5032C195.114 33.2712 194.967 34.072 194.967 34.9217C194.967 36.752 195.588 38.2554 196.83 39.481C198.072 40.6902 199.641 41.2949 201.52 41.2949C202.32 41.2949 203.088 41.1478 203.791 40.8537C204.493 40.5595 205.147 40.1183 205.719 39.5463V41.0334H207.99V28.9571H205.719V30.4115L205.735 30.3951ZM204.592 37.9776C203.742 38.811 202.761 39.2195 201.667 39.2195C200.458 39.2195 199.428 38.811 198.595 37.9776C197.761 37.1441 197.337 36.131 197.337 34.9054C197.337 33.6798 197.761 32.7483 198.595 31.9476C199.428 31.1468 200.441 30.7383 201.634 30.7383C202.827 30.7383 203.791 31.1632 204.624 32.0129C205.458 32.8627 205.882 33.8759 205.882 35.0524C205.882 36.1637 205.458 37.1441 204.608 37.9776M214.003 29.1368C213.529 29.3983 213.088 29.7905 212.729 30.3298V28.9407H210.621V41.0171H212.876V34.3007C212.876 33.1895 213.088 32.3888 213.529 31.8822C213.971 31.3756 214.69 31.0978 215.703 31.0161V28.7446C215.065 28.7446 214.51 28.8917 214.02 29.1532M191.029 33.9412C190.833 33.8759 190.556 33.7778 190.229 33.6471C189.02 33.2222 188.399 32.6666 188.399 31.9966C188.399 31.6044 188.529 31.2776 188.807 30.9998C189.085 30.7383 189.412 30.6076 189.82 30.6076C190.261 30.6076 190.621 30.7383 190.882 30.9834C191.144 31.2285 191.291 31.588 191.34 32.0293H193.497C193.431 30.9344 193.088 30.0846 192.467 29.48C191.83 28.8754 190.98 28.5812 189.918 28.5812C188.856 28.5812 188.023 28.9244 187.32 29.6107C186.618 30.2971 186.258 31.1305 186.258 32.111C186.258 32.6829 186.356 33.1895 186.569 33.6307C186.781 34.0719 187.108 34.4478 187.565 34.8073C187.81 35.0034 188.366 35.2485 189.265 35.5754C189.592 35.6898 189.853 35.7878 190.033 35.8532C190.572 36.0656 190.948 36.3107 191.193 36.6049C191.438 36.899 191.552 37.2585 191.552 37.6834C191.552 38.1737 191.389 38.5659 191.046 38.8763C190.703 39.1868 190.278 39.3339 189.755 39.3339C189.199 39.3339 188.742 39.1215 188.366 38.7129C187.99 38.3044 187.81 37.7815 187.81 37.1441H185.686C185.752 38.4515 186.144 39.481 186.863 40.249C187.582 41.0171 188.513 41.3766 189.673 41.3766C190.833 41.3766 191.781 41.0171 192.533 40.298C193.284 39.579 193.676 38.6802 193.676 37.6017C193.676 36.6702 193.48 35.9349 193.072 35.3793C192.663 34.8237 191.993 34.3661 191.029 33.9902M171.046 30.8854C170.425 30.2971 169.82 29.8232 169.216 29.48C168.611 29.1368 167.974 28.8917 167.32 28.761C166.242 28.5485 165.18 28.5976 164.15 28.8917C163.121 29.1859 162.222 29.7088 161.438 30.4605C160.784 31.0978 160.31 31.8005 160 32.5522C159.69 33.3202 159.559 34.1537 159.608 35.0361C159.641 35.8695 159.82 36.6376 160.147 37.3729C160.474 38.1083 160.948 38.7619 161.569 39.3666C162.173 39.9549 162.876 40.3961 163.693 40.7393C164.493 41.0661 165.327 41.2459 166.176 41.2622C167.075 41.2785 167.925 41.1478 168.693 40.8373C169.314 40.5922 169.886 40.249 170.425 39.8078V36.6702V36.7356C170.425 36.7029 170.425 36.5395 170.31 36.6866C169.935 37.2585 169.771 37.3893 169.248 37.8959C168.513 38.5985 167.647 38.9907 166.65 39.0724C165.654 39.1378 164.722 38.8927 163.856 38.3044L171.307 31.1141L171.062 30.869L171.046 30.8854ZM162.451 36.899C161.944 36.0329 161.732 35.1505 161.83 34.2517C161.928 33.3529 162.337 32.5849 163.023 31.9149C163.709 31.2612 164.493 30.8854 165.376 30.8037C166.258 30.722 167.173 30.9344 168.105 31.441L162.451 36.899ZM178.824 28.7446C178.088 28.7446 177.451 28.8754 176.879 29.1205C176.307 29.3656 175.801 29.7741 175.327 30.3134V28.9407H173.17V41.0171H175.425V35.5263C175.425 33.8432 175.67 32.6502 176.176 31.9149C176.683 31.1795 177.5 30.82 178.611 30.82C179.641 30.82 180.409 31.1305 180.899 31.7515C181.389 32.3724 181.634 33.3202 181.634 34.5949V41.0007H183.905V34.121C183.905 32.3888 183.464 31.0488 182.598 30.1173C181.716 29.1859 180.458 28.7283 178.824 28.7283" fill="#231F20"/>
</g>
<defs>
<clipPath id="clip0_934_922">
<rect width="250" height="67" fill="white"/>
</clipPath>
</defs>
</svg>
