<svg width="32" height="32" viewBox="0 0 32 32" fill="none" xmlns="http://www.w3.org/2000/svg">
<rect y="0.630371" width="32" height="32" rx="16" fill="#FFE0CC"/>
<path fill-rule="evenodd" clip-rule="evenodd" d="M8.03928 11.083C8.27253 10.8286 8.66788 10.8114 8.92233 11.0447L16 17.5325L23.0777 11.0447C23.3321 10.8114 23.7275 10.8286 23.9607 11.083C24.194 11.3375 24.1768 11.7329 23.9223 11.9661L16.4223 18.8411C16.1834 19.0601 15.8166 19.0601 15.5777 18.8411L8.07768 11.9661C7.82323 11.7329 7.80604 11.3375 8.03928 11.083Z" fill="#FF6600"/>
<path fill-rule="evenodd" clip-rule="evenodd" d="M7.875 11.5054C7.875 11.1602 8.15482 10.8804 8.5 10.8804H23.5C23.8452 10.8804 24.125 11.1602 24.125 11.5054V22.1304C24.125 22.4619 23.9933 22.7798 23.7589 23.0143C23.5245 23.2487 23.2065 23.3804 22.875 23.3804H9.125C8.79348 23.3804 8.47554 23.2487 8.24112 23.0143C8.0067 22.7798 7.875 22.4619 7.875 22.1304V11.5054ZM9.125 12.1304V22.1304H22.875V12.1304H9.125Z" fill="#FF6600"/>
<path fill-rule="evenodd" clip-rule="evenodd" d="M15.0934 16.7079C15.3267 16.9623 15.3096 17.3577 15.0553 17.591L9.11775 23.0363C8.86336 23.2696 8.468 23.2525 8.2347 22.9981C8.00139 22.7437 8.01848 22.3484 8.27288 22.1151L14.2104 16.6698C14.4648 16.4364 14.8601 16.4535 15.0934 16.7079Z" fill="#FF6600"/>
<path fill-rule="evenodd" clip-rule="evenodd" d="M16.9066 16.7079C17.1399 16.4535 17.5352 16.4364 17.7896 16.6698L23.7271 22.1151C23.9815 22.3484 23.9986 22.7437 23.7653 22.9981C23.532 23.2525 23.1366 23.2696 22.8823 23.0363L16.9448 17.591C16.6904 17.3577 16.6733 16.9623 16.9066 16.7079Z" fill="#FF6600"/>
</svg>
