<svg width="318" height="51" viewBox="0 0 318 51" fill="none" xmlns="http://www.w3.org/2000/svg">
<path d="M25.3274 50.6303C39.3153 50.6303 50.6547 39.2963 50.6547 25.3151C50.6547 11.334 39.3153 0 25.3274 0C11.3394 0 0 11.334 0 25.3151C0 39.2963 11.3394 50.6303 25.3274 50.6303Z" fill="#F9B57D"/>
<path d="M40.1485 13.3945C49.5407 35.535 41.3081 30.4084 32.4761 35.6046C23.6471 40.8008 13.2437 46.4237 8.16912 32.2091C4.60543 22.2253 6.05573 13.7486 14.2913 7.65658C20.4801 3.07777 36.3335 4.40935 40.1455 13.3975L40.1485 13.3945Z" fill="black"/>
<path d="M14.452 31.8701C12.8291 23.0636 14.0251 12.0145 25.2884 9.94145C36.5517 7.86842 41.6081 17.7645 43.231 26.5711C44.8539 35.3776 46.171 42.5167 31.78 45.1647C16.5563 47.9671 16.0749 40.6767 14.452 31.8701Z" fill="white"/>
<path d="M43.2126 27.1128C41.1961 27.485 39.8638 29.4188 40.2363 31.4313C40.5844 33.3228 42.3103 34.612 44.1875 34.4546C44.239 32.2091 43.8121 29.7305 43.3276 27.0946C43.2913 27.1007 43.2519 27.1037 43.2156 27.1097L43.2126 27.1128Z" fill="#E6E6E6"/>
<path d="M14.6486 37.2661C16.6987 37.2661 18.3606 35.6049 18.3606 33.5558C18.3606 31.5067 16.6987 29.8455 14.6486 29.8455C12.5985 29.8455 10.9365 31.5067 10.9365 33.5558C10.9365 35.6049 12.5985 37.2661 14.6486 37.2661Z" fill="white"/>
<path d="M23.8683 38.1558C25.9184 38.1558 27.5804 36.4947 27.5804 34.4455C27.5804 32.3964 25.9184 30.7353 23.8683 30.7353C21.8182 30.7353 20.1562 32.3964 20.1562 34.4455C20.1562 36.4947 21.8182 38.1558 23.8683 38.1558Z" fill="#E6E6E6"/>
<path d="M35.6886 26.5378C36.2739 26.5378 36.7484 26.0635 36.7484 25.4786C36.7484 24.8936 36.2739 24.4193 35.6886 24.4193C35.1034 24.4193 34.6289 24.8936 34.6289 25.4786C34.6289 26.0635 35.1034 26.5378 35.6886 26.5378Z" fill="black"/>
<path d="M25.5094 28.6289C26.0947 28.6289 26.5692 28.1547 26.5692 27.5697C26.5692 26.9848 26.0947 26.5105 25.5094 26.5105C24.9242 26.5105 24.4497 26.9848 24.4497 27.5697C24.4497 28.1547 24.9242 28.6289 25.5094 28.6289Z" fill="black"/>
<path d="M25.2882 9.93843C14.6788 11.8934 13.0014 21.8137 14.2004 30.3207C15.239 32.0941 16.4561 33.7616 17.9761 33.4832C20.2711 33.0595 20.5285 32.5813 19.5505 31.1468C18.5725 29.7124 13.5858 21.3628 17.5946 17.3922C21.6064 13.4217 29.0487 16.3603 32.6487 14.835C34.1323 14.2055 35.4554 13.4974 36.4031 12.7015C33.6569 10.3137 30.0175 9.06987 25.2851 9.94145L25.2882 9.93843Z" fill="black"/>
<path d="M17.6432 33.6194C16.2141 33.6194 15.0605 31.9972 14.1098 30.3751L14.0977 30.3358C13.3347 24.9308 12.8987 12.1143 25.2702 9.83553C29.6514 9.03053 33.421 9.96566 36.476 12.6197L36.5698 12.7015L36.476 12.7801C35.5979 13.5155 34.3263 14.2388 32.6943 14.9288C31.2743 15.5311 29.2638 15.4493 27.1353 15.3586C23.835 15.2224 20.0927 15.068 17.6735 17.4618C13.3589 21.732 19.578 30.9895 19.6415 31.0833C20.1472 31.8278 20.2925 32.2757 20.1411 32.6358C19.9595 33.0686 19.36 33.3349 17.9975 33.5861C17.8794 33.6072 17.7613 33.6194 17.6462 33.6194H17.6432ZM14.3036 30.2843C15.2906 31.967 16.4987 33.6466 17.9581 33.3772C19.2237 33.1442 19.799 32.9051 19.9443 32.5541C20.0624 32.2726 19.9171 31.8701 19.4629 31.2044C19.3993 31.1105 13.0834 21.7047 17.5221 17.3136C20.0079 14.8532 23.7956 15.0105 27.1413 15.1497C29.2456 15.2375 31.2319 15.3192 32.6095 14.7351C34.1628 14.0754 35.386 13.3915 36.2428 12.6984C33.2575 10.1503 29.5787 9.25751 25.3095 10.0443C13.1348 12.2868 13.5557 24.9308 14.3066 30.2874L14.3036 30.2843Z" fill="black"/>
<path d="M33.3148 31.5161C33.1998 31.5161 33.1059 31.4222 33.1029 31.3072C33.1029 31.1892 33.1937 31.0924 33.3118 31.0924C33.3572 31.0924 34.4775 31.047 35.0588 29.782C35.5463 28.7167 33.118 24.9853 32.1401 23.6386C32.0704 23.5447 32.0916 23.4116 32.1885 23.342C32.2824 23.2724 32.4156 23.2936 32.4852 23.3904C32.8607 23.9079 36.1246 28.4746 35.4464 29.9575C34.753 31.4737 33.3784 31.513 33.3209 31.5161H33.3179H33.3148Z" fill="black"/>
<path d="M33.3422 36.6093C31.0562 36.6093 29.0972 35.5562 28.9943 35.4987C28.8913 35.4412 28.855 35.3141 28.9095 35.2112C28.967 35.1083 29.0942 35.072 29.1971 35.1264C29.2274 35.1446 32.2824 36.7818 35.0892 35.9405C36.5001 35.5168 37.6234 34.5363 38.4228 33.0262C38.4773 32.9233 38.6075 32.8839 38.7104 32.9384C38.8134 32.9929 38.8527 33.123 38.7982 33.2259C37.9414 34.842 36.7333 35.8921 35.2073 36.3491C34.5805 36.5367 33.9507 36.6093 33.3422 36.6093Z" fill="black"/>
<path d="M22.7146 26.338C22.5269 26.338 22.3391 26.2896 22.1696 26.1867C21.673 25.8841 21.5095 25.2425 21.8063 24.7432C21.8668 24.6403 23.3383 22.2253 26.1844 22.537C26.7658 22.6005 27.1866 23.1241 27.123 23.7051C27.0595 24.2862 26.5387 24.7099 25.9543 24.6433C24.4798 24.4829 23.6593 25.7782 23.6229 25.8357C23.4231 26.1595 23.0719 26.3411 22.7146 26.3411V26.338Z" fill="black"/>
<path d="M37.7233 23.578C37.4024 23.578 37.0875 23.4328 36.8786 23.1574C35.9884 21.9832 34.2444 22.7579 34.1687 22.7912C33.6388 23.0333 33.0091 22.8033 32.7638 22.2737C32.5186 21.7441 32.7456 21.1176 33.2725 20.8695C34.4291 20.3278 37.0209 19.8405 38.5681 21.8742C38.9223 22.3403 38.8315 23.0061 38.3652 23.3601C38.1744 23.5054 37.9474 23.575 37.7263 23.575L37.7233 23.578Z" fill="black"/>
<path d="M16.1593 35.538C16.0533 35.538 15.9625 35.4593 15.9503 35.3534C15.5355 32.0003 12.9892 31.8368 12.8802 31.8308C12.7621 31.8247 12.6743 31.7249 12.6773 31.6099C12.6834 31.4918 12.7803 31.4011 12.8983 31.4071C12.9286 31.4071 15.908 31.5826 16.3712 35.302C16.3863 35.417 16.3046 35.5229 16.1865 35.538C16.1774 35.538 16.1683 35.538 16.1593 35.538Z" fill="black"/>
<path d="M91.9822 50.6303C105.97 50.6303 117.31 39.2963 117.31 25.3151C117.31 11.334 105.97 0 91.9822 0C77.9942 0 66.6548 11.334 66.6548 25.3151C66.6548 39.2963 77.9942 50.6303 91.9822 50.6303Z" fill="#FF6600"/>
<path d="M91.7851 8.19829C91.7851 8.19829 75.7409 6.60342 75.4654 18.3667C75.4654 18.3667 74.3573 20.0161 76.84 22.652C76.84 22.652 72.6193 27.715 74.3724 31.0561C74.3724 31.0561 71.4294 31.8066 70.7905 36.4278L85.6145 41.5392L96.5236 13.5972L93.9773 8.11961L91.7882 8.19224L91.7851 8.19829Z" fill="black"/>
<path d="M106.727 25.188C105.428 32.2091 97.0262 38.4826 88.3879 36.8847C79.7527 35.2868 77.3729 27.6666 78.6718 20.6455C79.9707 13.6245 84.8061 7.98645 93.4413 9.58435C102.077 11.1822 108.026 18.167 106.724 25.188H106.727Z" fill="#CCCCCC"/>
<path d="M92.4545 8.32237C92.4545 8.32237 92.1547 15.8095 97.1082 17.3741C97.1082 17.3741 94.2136 20.7182 97.2898 24.4133C97.2898 24.4133 93.9774 28.9951 95.8698 32.082C95.8698 32.082 90.0777 35.9042 90.5137 42.8799L113.174 37.4386C113.174 37.4386 109.725 27.6817 106.358 26.6255C106.358 26.6255 108.771 23.1937 106.061 18.164C106.061 18.164 106.606 12.9284 104.505 10.5467C101.096 6.68211 92.4575 8.31934 92.4575 8.31934L92.4545 8.32237Z" fill="black"/>
<path d="M82.3322 21.735C82.9175 21.735 83.3919 21.2608 83.3919 20.6758C83.3919 20.0908 82.9175 19.6166 82.3322 19.6166C81.7469 19.6166 81.2725 20.0908 81.2725 20.6758C81.2725 21.2608 81.7469 21.735 82.3322 21.735Z" fill="black"/>
<path d="M91.8459 23.9261C92.4311 23.9261 92.9056 23.4518 92.9056 22.8668C92.9056 22.2819 92.4311 21.8076 91.8459 21.8076C91.2606 21.8076 90.7861 22.2819 90.7861 22.8668C90.7861 23.4518 91.2606 23.9261 91.8459 23.9261Z" fill="black"/>
<path d="M84.5214 26.4651C84.476 26.4651 84.4336 26.453 84.3943 26.4228C83.5647 25.8054 83.489 22.7821 83.4829 22.4401C83.4829 22.3403 83.5465 22.2555 83.6434 22.2313L85.6145 21.735C85.7295 21.7078 85.8446 21.7743 85.8718 21.8893C85.8991 22.0043 85.8325 22.1193 85.7174 22.1466L83.9098 22.6036C83.9462 23.8322 84.1702 25.7297 84.6456 26.0868C84.7394 26.1565 84.7576 26.2896 84.688 26.3834C84.6456 26.4379 84.582 26.4682 84.5184 26.4682L84.5214 26.4651Z" fill="black"/>
<path d="M84.7152 29.2282C82.7714 29.2282 81.3151 28.0328 81.2969 28.0146C81.2061 27.9389 81.197 27.8058 81.2696 27.715C81.3453 27.6242 81.4786 27.6151 81.5694 27.6878C81.6723 27.7725 84.1067 29.7638 86.8317 28.2355C86.9346 28.178 87.0618 28.2143 87.1193 28.3172C87.1768 28.4201 87.1405 28.5472 87.0375 28.6047C86.2291 29.0587 85.4389 29.2251 84.7152 29.2251V29.2282Z" fill="black"/>
<path d="M84.2402 19.0779C84.0827 19.0779 83.9222 19.0204 83.7981 18.8993C82.9745 18.1065 81.5273 18.509 81.5121 18.515C81.176 18.6118 80.8218 18.4182 80.7249 18.0822C80.628 17.7463 80.8188 17.3953 81.1549 17.2954C81.2427 17.2712 83.3197 16.675 84.6822 17.9854C84.9365 18.2275 84.9426 18.63 84.7004 18.8842C84.5762 19.0143 84.4097 19.0779 84.2432 19.0779H84.2402Z" fill="black"/>
<path d="M93.7533 21.2689C93.5959 21.2689 93.4354 21.2114 93.3113 21.0904C92.4877 20.2975 91.0405 20.7 91.0253 20.7061C90.6892 20.8029 90.335 20.6092 90.2381 20.2733C90.1412 19.9374 90.332 19.5863 90.668 19.4864C90.7558 19.4592 92.8329 18.8661 94.1954 20.1764C94.4497 20.4186 94.4558 20.8211 94.2136 21.0753C94.0894 21.2054 93.9229 21.2689 93.7564 21.2689H93.7533Z" fill="black"/>
<path d="M78.9384 23.2815C78.7446 23.2451 78.5509 23.2421 78.3631 23.2603C78.2814 24.9036 78.4176 26.5347 78.8022 28.0721C79.7135 27.9026 80.4917 27.1279 80.6854 26.0838C80.9307 24.7613 80.1495 23.5054 78.9384 23.2815Z" fill="#B3B3B3"/>
<path d="M94.9768 29.3718C95.3284 27.4719 94.2071 25.6717 92.4724 25.351C90.7377 25.0302 89.0464 26.3104 88.6947 28.2103C88.3431 30.1102 89.4644 31.9104 91.1991 32.2311C92.9339 32.5518 94.6252 31.2717 94.9768 29.3718Z" fill="#B3B3B3"/>
<path d="M93.6202 8.53724C93.6202 8.53724 83.9071 8.24974 80.3101 12.7559C80.3101 12.7559 82.1358 14.602 84.8608 15.1074L87.1983 11.8753L86.4867 15.7157C86.4867 15.7157 89.5145 16.8293 90.9194 16.2271L91.2676 13.107L92.5786 15.6733C92.5786 15.6733 93.6141 15.6491 95.6821 14.953L93.6202 8.53724Z" fill="black"/>
<path d="M101.174 30.3509C103.225 30.3509 104.887 28.6898 104.887 26.6407C104.887 24.5915 103.225 22.9304 101.174 22.9304C99.1243 22.9304 97.4624 24.5915 97.4624 26.6407C97.4624 28.6898 99.1243 30.3509 101.174 30.3509Z" fill="#CCCCCC"/>
<path d="M98.1555 22.5642C98.1555 22.5642 98.1888 31.3678 102.806 32.2212L96.908 31.8126C96.908 31.8126 96.0481 26.9554 98.1555 22.5642Z" fill="black"/>
<path d="M100.13 28.4897C100.13 28.4897 100.112 28.4897 100.102 28.4897C99.9874 28.4746 99.9026 28.3687 99.9178 28.2537C100.381 24.5374 103.363 24.3649 103.394 24.3618C103.509 24.3558 103.609 24.4466 103.615 24.5646C103.621 24.6826 103.53 24.7795 103.412 24.7855C103.303 24.7916 100.756 24.955 100.339 28.3051C100.327 28.4111 100.233 28.4897 100.13 28.4897Z" fill="black"/>
<path d="M158.637 50.6303C172.625 50.6303 183.964 39.2963 183.964 25.3151C183.964 11.334 172.625 0 158.637 0C144.649 0 133.31 11.334 133.31 25.3151C133.31 39.2963 144.649 50.6303 158.637 50.6303Z" fill="#4D4D4D"/>
<path d="M154.785 12.877C154.785 12.877 139.204 13.1887 141.166 24.8309C143.132 36.4732 144.004 40.3559 144.004 40.3559L176.277 33.1109L172.834 17.7826C172.834 17.7826 170.63 8.89434 154.785 12.8739V12.877Z" fill="black"/>
<path d="M170.675 26.5499C172.086 32.8325 167.626 37.4446 160.768 38.982C153.913 40.5193 147.258 38.4039 145.847 32.1213C144.436 25.8387 146.314 20.0705 155.706 17.9612C166.391 15.5613 169.264 20.2672 170.675 26.5468V26.5499Z" fill="white"/>
<path d="M143.886 28.2204C143.886 28.2204 152.83 26.4288 155.706 17.9642C155.706 17.9642 167.448 23.7989 170.712 22.8487C170.712 22.8487 168.417 11.6332 155.173 14.608C141.93 17.5799 143.883 28.2204 143.883 28.2204H143.886Z" fill="black"/>
<path d="M171.814 30.9834C173.864 30.9834 175.526 29.3223 175.526 27.2732C175.526 25.224 173.864 23.5629 171.814 23.5629C169.764 23.5629 168.102 25.224 168.102 27.2732C168.102 29.3223 169.764 30.9834 171.814 30.9834Z" fill="white"/>
<path d="M171.496 29.4007C171.405 29.4007 171.32 29.3401 171.293 29.2463C170.257 25.648 172.931 24.3164 172.958 24.3043C173.064 24.2529 173.188 24.2983 173.24 24.4042C173.291 24.5101 173.246 24.6372 173.14 24.6857C173.043 24.7341 170.766 25.8841 171.699 29.1283C171.732 29.2403 171.665 29.3583 171.553 29.3916C171.535 29.3976 171.514 29.4007 171.496 29.4007Z" fill="black"/>
<path d="M145.953 36.7879C148.003 36.7879 149.665 35.1268 149.665 33.0776C149.665 31.0285 148.003 29.3674 145.953 29.3674C143.903 29.3674 142.241 31.0285 142.241 33.0776C142.241 35.1268 143.903 36.7879 145.953 36.7879Z" fill="white"/>
<path d="M147.062 34.8874C146.959 34.8874 146.871 34.8147 146.853 34.7088C146.305 31.3617 143.677 31.3072 143.649 31.3072C143.531 31.3072 143.438 31.2104 143.438 31.0954C143.438 30.9774 143.534 30.8836 143.649 30.8836C143.68 30.8836 146.665 30.9441 147.271 34.6392C147.289 34.7542 147.21 34.8632 147.095 34.8813C147.083 34.8813 147.071 34.8813 147.062 34.8813V34.8874Z" fill="black"/>
<path d="M152.56 28.7228C151.579 28.7228 150.665 28.0237 150.616 27.9874C150.522 27.9147 150.507 27.7816 150.58 27.6908C150.653 27.6 150.786 27.5818 150.877 27.6545C150.889 27.6635 152.091 28.5805 153.054 28.2143C153.638 27.9904 154.038 27.3307 154.241 26.2472C154.262 26.1322 154.374 26.0566 154.489 26.0778C154.604 26.0989 154.68 26.2109 154.658 26.3259C154.428 27.5637 153.938 28.3354 153.205 28.6138C152.993 28.6955 152.775 28.7288 152.56 28.7288V28.7228Z" fill="black"/>
<path d="M161.274 26.7738C160.538 26.7738 159.812 26.2866 159.115 25.3212C159.046 25.2274 159.067 25.0942 159.164 25.0246C159.26 24.955 159.391 24.9792 159.46 25.073C160.105 25.9658 160.75 26.3925 161.374 26.3471C162.4 26.2684 163.097 24.9247 163.103 24.9096C163.154 24.8067 163.281 24.7643 163.387 24.8158C163.49 24.8672 163.533 24.9974 163.481 25.1003C163.448 25.1638 162.673 26.6679 161.41 26.7678C161.365 26.7708 161.322 26.7738 161.277 26.7738H161.274Z" fill="black"/>
<path d="M150.489 37.3175C151.835 37.3175 152.926 36.2268 152.926 34.8813C152.926 33.5358 151.835 32.4451 150.489 32.4451C149.143 32.4451 148.052 33.5358 148.052 34.8813C148.052 36.2268 149.143 37.3175 150.489 37.3175Z" fill="#E6E6E6"/>
<path d="M167.66 33.465C169.006 33.465 170.097 32.3743 170.097 31.0288C170.097 29.6834 169.006 28.5926 167.66 28.5926C166.313 28.5926 165.222 29.6834 165.222 31.0288C165.222 32.3743 166.313 33.465 167.66 33.465Z" fill="#E6E6E6"/>
<path d="M157.471 29.8364C157.438 29.8364 157.408 29.8304 157.377 29.8153C157.271 29.7638 157.229 29.6367 157.284 29.5308C157.462 29.1737 158.025 28.5563 158.888 28.7772C159 28.8075 159.07 28.9225 159.04 29.0345C159.009 29.1495 158.894 29.2161 158.782 29.1858C158.037 28.9921 157.677 29.6882 157.662 29.7184C157.626 29.7941 157.55 29.8364 157.471 29.8364Z" fill="black"/>
<path d="M151.007 25.7358C150.822 25.7358 150.641 25.6571 150.516 25.5028C150.295 25.2334 150.332 24.8339 150.601 24.61C150.671 24.5525 152.348 23.1907 154.116 23.8595C154.443 23.9836 154.61 24.3497 154.486 24.6796C154.362 25.0064 153.995 25.1729 153.665 25.0488C152.597 24.6463 151.422 25.5845 151.413 25.5935C151.295 25.6904 151.152 25.7358 151.01 25.7358H151.007Z" fill="black"/>
<path d="M158.87 23.9714C158.685 23.9714 158.503 23.8928 158.379 23.7384C158.158 23.4691 158.195 23.0696 158.464 22.8457C158.534 22.7882 160.214 21.4263 161.979 22.0951C162.306 22.2192 162.473 22.5854 162.349 22.9153C162.224 23.2451 161.855 23.4085 161.528 23.2845C160.459 22.8789 159.285 23.8201 159.272 23.8292C159.154 23.926 159.012 23.9714 158.87 23.9714Z" fill="black"/>
<path d="M156.72 33.4468C154.449 33.4468 152.66 32.8234 152.623 32.8113C152.514 32.772 152.457 32.6509 152.496 32.5389C152.536 32.43 152.657 32.3725 152.769 32.4118C152.841 32.4361 159.99 34.9237 163.635 29.7093C163.702 29.6125 163.835 29.5913 163.932 29.6579C164.029 29.7245 164.05 29.8576 163.984 29.9545C162.022 32.7599 159.109 33.4499 156.726 33.4499L156.72 33.4468Z" fill="black"/>
<path d="M154.522 13.6668C160.663 12.2899 166.403 14.0058 168.241 17.5375C168.259 17.0745 168.223 16.6114 168.12 16.1545C167.133 11.7572 160.775 9.4421 153.917 10.9795C147.062 12.5168 142.305 17.3317 143.292 21.7259C143.395 22.1829 143.559 22.6187 143.774 23.0303C143.925 19.0507 148.379 15.0468 154.519 13.6668H154.522Z" fill="#FF6600"/>
<path d="M225.292 50.6303C239.28 50.6303 250.619 39.2963 250.619 25.3151C250.619 11.334 239.28 0 225.292 0C211.304 0 199.964 11.334 199.964 25.3151C199.964 39.2963 211.304 50.6303 225.292 50.6303Z" fill="#CCCCCC"/>
<path d="M230.079 33.695L218.839 35.1537L216.229 42.9071C218.964 44.0722 222.403 43.9451 226.621 42.786C229.706 41.9387 232.153 40.825 233.93 39.3512L230.079 33.698V33.695Z" fill="#FF6600"/>
<path d="M241.742 14.9197C242.332 18.0732 235.598 35.4412 226.624 37.9107C217.647 40.3801 212.181 38.1709 209.59 28.7591C206.998 19.3472 210.946 15.2405 219.923 12.7711C228.901 10.3016 241.106 11.5272 241.745 14.9167L241.742 14.9197Z" fill="white"/>
<path d="M227.323 19.1566C227.557 19.1566 227.747 18.9669 227.747 18.7329C227.747 18.4989 227.557 18.3092 227.323 18.3092C227.089 18.3092 226.899 18.4989 226.899 18.7329C226.899 18.9669 227.089 19.1566 227.323 19.1566Z" fill="black"/>
<path d="M229.655 20.0039C229.889 20.0039 230.079 19.8143 230.079 19.5803C230.079 19.3463 229.889 19.1566 229.655 19.1566C229.421 19.1566 229.231 19.3463 229.231 19.5803C229.231 19.8143 229.421 20.0039 229.655 20.0039Z" fill="black"/>
<path d="M227.535 21.278C227.769 21.278 227.959 21.0883 227.959 20.8543C227.959 20.6203 227.769 20.4307 227.535 20.4307C227.301 20.4307 227.111 20.6203 227.111 20.8543C227.111 21.0883 227.301 21.278 227.535 21.278Z" fill="black"/>
<path d="M238.351 15.3434C238.585 15.3434 238.775 15.1537 238.775 14.9197C238.775 14.6857 238.585 14.4961 238.351 14.4961C238.117 14.4961 237.927 14.6857 237.927 14.9197C237.927 15.1537 238.117 15.3434 238.351 15.3434Z" fill="black"/>
<path d="M240.682 16.1908C240.916 16.1908 241.106 16.0011 241.106 15.7671C241.106 15.5331 240.916 15.3434 240.682 15.3434C240.448 15.3434 240.258 15.5331 240.258 15.7671C240.258 16.0011 240.448 16.1908 240.682 16.1908Z" fill="black"/>
<path d="M238.563 17.4618C238.797 17.4618 238.986 17.2722 238.986 17.0382C238.986 16.8042 238.797 16.6145 238.563 16.6145C238.328 16.6145 238.139 16.8042 238.139 17.0382C238.139 17.2722 238.328 17.4618 238.563 17.4618Z" fill="black"/>
<path d="M221.28 23.3964C222.626 23.3964 223.717 22.3057 223.717 20.9603C223.717 19.6148 222.626 18.5241 221.28 18.5241C219.934 18.5241 218.842 19.6148 218.842 20.9603C218.842 22.3057 219.934 23.3964 221.28 23.3964Z" fill="#E6E6E6"/>
<path d="M237.27 15.6914C237.582 17.3014 236.159 18.9296 234.088 19.3291C232.02 19.7316 230.088 18.7511 229.776 17.1411C229.464 15.5311 231.129 15.1528 233.2 14.7503C235.271 14.3478 236.958 14.0784 237.27 15.6884V15.6914Z" fill="black"/>
<path d="M226.687 22.7609C226.687 22.7609 229.231 23.6083 230.717 22.9728C230.717 22.9728 233.261 29.1192 228.81 28.9074C224.359 28.6955 226.69 22.7609 226.69 22.7609H226.687Z" fill="#FF6600"/>
<path d="M229.782 23.227C228.831 23.227 227.75 23.112 226.542 22.882C226.427 22.8608 226.352 22.7488 226.373 22.6338C226.394 22.5188 226.506 22.4432 226.621 22.4643C230.182 23.1392 232.565 22.8033 233.697 21.4626C234.905 20.0342 234.293 17.8492 234.148 17.4013C234.127 17.3438 234.118 17.3105 234.115 17.3045C234.081 17.1955 234.142 17.0805 234.251 17.0442C234.36 17.0079 234.478 17.0654 234.517 17.1713C234.523 17.1864 234.542 17.2409 234.572 17.3317C234.799 17.9551 235.828 20.2914 238.375 19.6862C238.49 19.6589 238.602 19.7286 238.629 19.8436C238.656 19.9586 238.587 20.0705 238.472 20.0978C236.64 20.5336 235.492 19.6105 234.838 18.7087C234.917 19.6317 234.805 20.8029 234.018 21.735C233.179 22.7276 231.759 23.2239 229.776 23.2239L229.782 23.227Z" fill="black"/>
<path d="M229.531 15.0468C229.182 15.0468 228.901 14.9439 228.686 14.7412C227.944 14.0391 228.383 12.3897 228.401 12.3201C228.432 12.2082 228.55 12.1416 228.662 12.1718C228.774 12.2021 228.84 12.3201 228.81 12.4321C228.698 12.8407 228.513 13.9937 228.977 14.4325C229.222 14.6625 229.64 14.6837 230.224 14.493C230.978 14.2449 231.441 13.8847 231.602 13.4157C231.832 12.7529 231.39 12.078 231.384 12.072C231.32 11.9751 231.344 11.842 231.441 11.7784C231.538 11.7149 231.671 11.7391 231.735 11.8359C231.759 11.8692 232.298 12.6924 231.998 13.5549C231.789 14.1571 231.235 14.608 230.351 14.8986C230.045 14.9984 229.767 15.0499 229.525 15.0499L229.531 15.0468Z" fill="black"/>
<path d="M209.656 20.6304C209.656 20.6304 208.439 8.01671 210.567 10.4075C212.696 12.7983 215.981 16.6145 215.981 16.6145C215.981 16.6145 211.073 22.5279 209.656 20.6304Z" fill="white"/>
<path d="M217.501 17.6646C217.501 17.6646 216.284 5.05092 218.413 7.44171C220.541 9.8325 223.826 13.6487 223.826 13.6487C223.826 13.6487 218.918 19.5621 217.501 17.6646Z" fill="white"/>
<path d="M222.957 16.5297C222.609 16.5297 222.328 16.4268 222.113 16.2241C221.371 15.522 221.81 13.8726 221.828 13.803C221.858 13.6911 221.976 13.6245 222.088 13.6547C222.2 13.685 222.267 13.803 222.237 13.915C222.125 14.3236 221.94 15.4766 222.403 15.9154C222.649 16.1454 223.066 16.1666 223.651 15.9759C224.405 15.7278 224.868 15.3676 225.028 14.8986C225.259 14.2358 224.816 13.5609 224.81 13.5549C224.747 13.458 224.771 13.3249 224.868 13.2613C224.965 13.1978 225.098 13.222 225.162 13.3188C225.186 13.3521 225.725 14.1753 225.425 15.0378C225.216 15.64 224.662 16.0909 223.778 16.3815C223.472 16.4813 223.194 16.5328 222.951 16.5328L222.957 16.5297Z" fill="black"/>
<path d="M291.946 50.6303C305.934 50.6303 317.274 39.2963 317.274 25.3151C317.274 11.334 305.934 0 291.946 0C277.959 0 266.619 11.334 266.619 25.3151C266.619 39.2963 277.959 50.6303 291.946 50.6303Z" fill="#BF4D00"/>
<path d="M305.12 23.1967C305.099 23.1967 305.075 23.1937 305.054 23.1846C304.984 23.1604 298.047 20.9058 292.055 22.0861C285.912 23.2966 283.514 21.5564 283.414 21.4838C283.32 21.4142 283.302 21.2811 283.372 21.1872C283.441 21.0934 283.575 21.0753 283.669 21.1449C283.699 21.1691 286.057 22.8366 291.974 21.6714C298.078 20.47 305.117 22.7609 305.187 22.7851C305.299 22.8214 305.36 22.9425 305.323 23.0514C305.293 23.1392 305.211 23.1967 305.12 23.1967Z" fill="white"/>
<path d="M302.759 34.6967C299.676 43.9603 294.102 45.879 285.267 42.9404C276.432 40.0049 273.117 35.1295 276.199 25.8659C279.281 16.6024 284.846 15.3858 293.681 18.3213C302.517 21.2568 305.841 25.4301 302.759 34.6937V34.6967Z" fill="#FFE0CC"/>
<path d="M302.819 39.9776C304.87 39.9776 306.532 38.3165 306.532 36.2674C306.532 34.2183 304.87 32.5571 302.819 32.5571C300.769 32.5571 299.107 34.2183 299.107 36.2674C299.107 38.3165 300.769 39.9776 302.819 39.9776Z" fill="#FFE0CC"/>
<path d="M301.584 23.1876C303.634 23.1876 305.296 21.5265 305.296 19.4774C305.296 17.4282 303.634 15.7671 301.584 15.7671C299.534 15.7671 297.872 17.4282 297.872 19.4774C297.872 21.5265 299.534 23.1876 301.584 23.1876Z" fill="black"/>
<path d="M309.296 23.7959C309.444 22.5249 308.932 21.3325 308.033 20.5547C309.026 18.975 308.693 16.8657 307.195 15.6793C306.792 15.3616 306.344 15.1376 305.881 15.0105C305.581 13.4671 304.315 12.2233 302.668 12.0296C301.832 11.9328 301.03 12.1234 300.358 12.5199C300.11 11.4667 299.41 10.5679 298.45 10.0716C298.32 8.3375 296.976 6.88184 295.183 6.67303C293.8 6.51263 292.507 7.13303 291.744 8.18619C291.38 8.01066 290.987 7.88961 290.563 7.83816C289.076 7.66263 287.693 8.39803 286.963 9.59948C286.412 9.10316 285.709 8.76421 284.916 8.67342C283.187 8.47066 281.601 9.49356 281.016 11.0521C280.814 10.9916 280.602 10.9432 280.384 10.9189C278.349 10.6799 276.505 12.1386 276.266 14.1722C276.19 14.8289 276.29 15.4675 276.532 16.0364C275.648 16.6175 275.015 17.5708 274.882 18.7057C274.643 20.7393 276.102 22.5824 278.137 22.8215C279.509 22.9818 280.792 22.3705 281.555 21.3325C282.022 21.6382 282.561 21.844 283.151 21.9136C284.892 22.1163 286.491 21.0783 287.066 19.4986C287.493 19.7467 287.977 19.9162 288.501 19.9767C289.337 20.0736 290.139 19.8829 290.811 19.4864C291.156 20.9663 292.395 22.1405 293.99 22.3251C294.248 22.3554 294.502 22.3584 294.747 22.3372C294.647 24.2257 295.992 25.8901 297.869 26.1867C298.405 27.2792 299.468 28.0872 300.767 28.2416C300.948 28.2628 301.13 28.2658 301.309 28.2597C301.899 29.0133 302.777 29.5429 303.8 29.6639C305.835 29.903 307.679 28.4443 307.918 26.4107C307.924 26.3592 307.924 26.3078 307.927 26.2563C308.66 25.6692 309.172 24.8037 309.29 23.7959H309.296Z" fill="black"/>
<path d="M301.884 38.183C301.884 38.183 301.875 38.183 301.872 38.183C301.753 38.177 301.666 38.0771 301.672 37.9591C301.887 34.2216 304.851 33.8493 304.881 33.8463C304.993 33.8342 305.102 33.9159 305.114 34.0339C305.126 34.1489 305.045 34.2549 304.927 34.267C304.818 34.2791 302.289 34.612 302.096 37.9833C302.09 38.0953 301.996 38.183 301.884 38.183Z" fill="black"/>
<path d="M283.629 24.7341C283.484 24.7341 283.338 24.6857 283.22 24.5858C282.348 23.8534 280.928 24.3467 280.916 24.3528C280.586 24.4738 280.22 24.3074 280.099 23.9775C279.977 23.6476 280.144 23.2814 280.474 23.1604C280.559 23.1301 282.593 22.3978 284.038 23.6143C284.307 23.8413 284.34 24.2408 284.113 24.5101C283.986 24.6584 283.808 24.7371 283.626 24.7371L283.629 24.7341Z" fill="black"/>
<path d="M292.707 27.9874C292.513 27.9874 292.325 27.8996 292.198 27.7362C292.183 27.718 291.262 26.5378 290.133 26.683C289.788 26.7284 289.467 26.4833 289.421 26.1322C289.376 25.7842 289.624 25.4664 289.972 25.4211C291.853 25.182 293.161 26.8949 293.215 26.9675C293.427 27.2489 293.37 27.6454 293.091 27.8572C292.976 27.945 292.843 27.9843 292.71 27.9843L292.707 27.9874Z" fill="black"/>
<path d="M279.454 33.1775C279.254 33.1775 279.051 33.1654 278.845 33.1412C275.999 32.8083 273.955 30.2238 274.288 27.3791C274.449 26.0021 275.136 24.7704 276.226 23.9079C277.316 23.0484 278.673 22.6641 280.05 22.8245C282.896 23.1574 284.94 25.7418 284.607 28.5866C284.298 31.2255 282.049 33.1745 279.451 33.1745L279.454 33.1775ZM279.442 23.4267C278.421 23.4267 277.437 23.7657 276.623 24.4103C275.666 25.1638 275.064 26.2472 274.921 27.4547C274.631 29.9515 276.423 32.2182 278.918 32.5117C281.413 32.8022 283.684 31.0107 283.977 28.517C284.268 26.0203 282.476 23.7536 279.978 23.46C279.796 23.4388 279.617 23.4297 279.439 23.4297L279.442 23.4267Z" fill="black"/>
<path d="M291.032 36.452C290.829 36.452 290.624 36.4399 290.418 36.4157C289.04 36.2553 287.808 35.5653 286.945 34.4788C286.085 33.3893 285.7 32.0336 285.861 30.6566C286.194 27.8118 288.78 25.7721 291.626 26.102C294.472 26.4349 296.516 29.0193 296.183 31.8641C296.022 33.2411 295.332 34.4728 294.245 35.3353C293.318 36.0676 292.198 36.455 291.032 36.455V36.452ZM291.02 26.7012C288.74 26.7012 286.766 28.4111 286.497 30.7292C286.354 31.9367 286.693 33.1291 287.447 34.0854C288.201 35.0387 289.285 35.6439 290.493 35.7862C291.701 35.9284 292.894 35.5895 293.851 34.8359C294.808 34.0824 295.41 32.9989 295.553 31.7914C295.843 29.2947 294.051 27.028 291.556 26.7345C291.377 26.7133 291.199 26.7042 291.023 26.7042L291.02 26.7012Z" fill="black"/>
<path d="M283.332 33.4529C283.202 33.4529 283.081 33.3712 283.033 33.2441C282.839 32.7115 282.972 32.3422 283.114 32.1243C283.553 31.4646 284.622 31.392 284.743 31.3859C284.919 31.3799 285.067 31.513 285.076 31.6855C285.085 31.8611 284.949 32.0093 284.777 32.0184C284.552 32.0305 283.865 32.1395 283.644 32.4754C283.611 32.5268 283.505 32.6842 283.629 33.0262C283.69 33.1926 283.602 33.3742 283.438 33.4347C283.402 33.4468 283.366 33.4529 283.329 33.4529H283.332Z" fill="black"/>
<path d="M289.479 40.7372C286.996 40.7372 285.04 39.5782 285.007 39.557C284.856 39.4662 284.81 39.2695 284.901 39.1212C284.992 38.9699 285.189 38.9245 285.337 39.0153C285.564 39.1515 290.932 42.317 294.95 37.3236C295.059 37.1874 295.259 37.1662 295.398 37.2751C295.535 37.3841 295.556 37.5838 295.447 37.723C293.561 40.0684 291.365 40.7372 289.479 40.7372Z" fill="black"/>
<path d="M280.711 30.1512C281.296 30.1512 281.77 29.677 281.77 29.092C281.77 28.507 281.296 28.0328 280.711 28.0328C280.125 28.0328 279.651 28.507 279.651 29.092C279.651 29.677 280.125 30.1512 280.711 30.1512Z" fill="black"/>
<path d="M292.119 32.9808C292.705 32.9808 293.179 32.5066 293.179 31.9216C293.179 31.3366 292.705 30.8624 292.119 30.8624C291.534 30.8624 291.06 31.3366 291.06 31.9216C291.06 32.5066 291.534 32.9808 292.119 32.9808Z" fill="black"/>
<path d="M278.352 37.9742C279.698 37.9742 280.789 36.8835 280.789 35.538C280.789 34.1926 279.698 33.1018 278.352 33.1018C277.006 33.1018 275.915 34.1926 275.915 35.538C275.915 36.8835 277.006 37.9742 278.352 37.9742Z" fill="#FFC299"/>
<path d="M298.247 39.448C299.594 39.448 300.685 38.3573 300.685 37.0118C300.685 35.6664 299.594 34.5757 298.247 34.5757C296.901 34.5757 295.81 35.6664 295.81 37.0118C295.81 38.3573 296.901 39.448 298.247 39.448Z" fill="#FFC299"/>
<path d="M305.399 40.0624C305.248 40.0624 305.093 40.0533 304.939 40.0351C304.763 40.0139 304.639 39.8566 304.66 39.6811C304.681 39.5055 304.839 39.3814 305.014 39.4026C306.816 39.6114 308.451 38.3192 308.66 36.5216C308.869 34.7239 307.576 33.0867 305.777 32.8779L296.089 31.7461C295.913 31.7249 295.789 31.5675 295.81 31.392C295.831 31.2164 295.989 31.0924 296.164 31.1136L305.853 32.2454C308 32.4966 309.544 34.4486 309.293 36.5942C309.06 38.5886 307.361 40.0593 305.399 40.0593V40.0624Z" fill="black"/>
</svg>
