<svg width="32" height="33" viewBox="0 0 32 33" fill="none" xmlns="http://www.w3.org/2000/svg">
<rect y="0.5" width="32" height="32" rx="16" fill="#FFE0CC"/>
<path fill-rule="evenodd" clip-rule="evenodd" d="M16 9.625C13.5838 9.625 11.625 11.5838 11.625 14C11.625 16.4162 13.5838 18.375 16 18.375C18.4162 18.375 20.375 16.4162 20.375 14C20.375 11.5838 18.4162 9.625 16 9.625ZM10.375 14C10.375 10.8934 12.8934 8.375 16 8.375C19.1066 8.375 21.625 10.8934 21.625 14C21.625 17.1066 19.1066 19.625 16 19.625C12.8934 19.625 10.375 17.1066 10.375 14Z" fill="#FF6600"/>
<path fill-rule="evenodd" clip-rule="evenodd" d="M16.0001 19.6243C14.5737 19.6243 13.1725 19.9998 11.9373 20.713C10.702 21.4263 9.67634 22.4521 8.96327 23.6874C8.79071 23.9864 8.40848 24.0889 8.10953 23.9163C7.81058 23.7437 7.70812 23.3615 7.88068 23.0625C8.70345 21.6372 9.88696 20.4535 11.3122 19.6305C12.7375 18.8076 14.3543 18.3743 16.0001 18.3743C17.6459 18.3743 19.2627 18.8076 20.688 19.6305C22.1132 20.4535 23.2968 21.6372 24.1195 23.0625C24.2921 23.3615 24.1896 23.7437 23.8907 23.9163C23.5917 24.0889 23.2095 23.9864 23.0369 23.6874C22.3239 22.4521 21.2982 21.4263 20.0629 20.713C18.8277 19.9998 17.4265 19.6243 16.0001 19.6243Z" fill="#FF6600"/>
</svg>
