<svg width="32" height="32" viewBox="0 0 32 32" fill="none" xmlns="http://www.w3.org/2000/svg">
<rect width="32" height="32" rx="16" fill="#FFE0CC"/>
<path fill-rule="evenodd" clip-rule="evenodd" d="M8.24114 10.6161C8.47556 10.3817 8.7935 10.25 9.12502 10.25H22.875C23.2065 10.25 23.5245 10.3817 23.7589 10.6161C23.9933 10.8505 24.125 11.1685 24.125 11.5V21.5C24.125 21.8315 23.9933 22.1495 23.7589 22.3839C23.5245 22.6183 23.2065 22.75 22.875 22.75H12.4455C12.4492 22.75 12.4529 22.7486 12.4557 22.7462L12.4455 22.7344L12.0469 22.2734L12.4477 22.753L9.9243 24.8623L9.92191 24.8643C9.73981 25.015 9.5187 25.111 9.28425 25.1411C9.0498 25.1712 8.81162 25.1342 8.59734 25.0345C8.38306 24.9347 8.20146 24.7762 8.07361 24.5774C7.94577 24.3786 7.87691 24.1476 7.87504 23.9112L7.875 23.9062L7.87502 11.5C7.87502 11.1685 8.00672 10.8505 8.24114 10.6161ZM11.6427 21.7967C11.8662 21.6053 12.1508 21.5001 12.4452 21.5H22.875V11.5L9.12502 11.5V23.9013L11.6427 21.7967Z" fill="#FF6600"/>
<path d="M16 17.4375C16.5178 17.4375 16.9375 17.0178 16.9375 16.5C16.9375 15.9822 16.5178 15.5625 16 15.5625C15.4822 15.5625 15.0625 15.9822 15.0625 16.5C15.0625 17.0178 15.4822 17.4375 16 17.4375Z" fill="#FF6600"/>
<path d="M12.25 17.4375C12.7678 17.4375 13.1875 17.0178 13.1875 16.5C13.1875 15.9822 12.7678 15.5625 12.25 15.5625C11.7322 15.5625 11.3125 15.9822 11.3125 16.5C11.3125 17.0178 11.7322 17.4375 12.25 17.4375Z" fill="#FF6600"/>
<path d="M19.75 17.4375C20.2678 17.4375 20.6875 17.0178 20.6875 16.5C20.6875 15.9822 20.2678 15.5625 19.75 15.5625C19.2322 15.5625 18.8125 15.9822 18.8125 16.5C18.8125 17.0178 19.2322 17.4375 19.75 17.4375Z" fill="#FF6600"/>
</svg>
